<svg xmlns="http://www.w3.org/2000/svg" xmlns:xlink="http://www.w3.org/1999/xlink" width="166" zoomAndPan="magnify" viewBox="0 0 124.5 82.499998" height="110" preserveAspectRatio="xMidYMid meet" version="1.0"><defs><g/><clipPath id="22f23bad5e"><path d="M 43.222656 9.824219 L 80.945312 9.824219 L 80.945312 47.550781 L 43.222656 47.550781 Z M 43.222656 9.824219 " clip-rule="nonzero"/></clipPath></defs><g fill="#370000" fill-opacity="1"><g transform="translate(24.367019, 63.056909)"><g><path d="M 2.5625 -8.234375 L 2.5625 -0.234375 C 2.5625 -0.160156 2.535156 -0.101562 2.484375 -0.0625 C 2.429688 -0.0195312 2.378906 0 2.328125 0 L 1.078125 0 C 1.023438 0 0.96875 -0.0195312 0.90625 -0.0625 C 0.851562 -0.101562 0.828125 -0.160156 0.828125 -0.234375 L 0.828125 -8.234375 C 0.828125 -8.316406 0.851562 -8.375 0.90625 -8.40625 C 0.96875 -8.445312 1.023438 -8.46875 1.078125 -8.46875 L 2.328125 -8.46875 C 2.378906 -8.46875 2.429688 -8.445312 2.484375 -8.40625 C 2.535156 -8.375 2.5625 -8.316406 2.5625 -8.234375 Z M 2.5625 -8.234375 "/></g></g></g><g fill="#370000" fill-opacity="1"><g transform="translate(30.460021, 63.056909)"><g><path d="M 5.65625 -0.234375 L 2.5625 -5.03125 L 2.5625 -0.234375 C 2.5625 -0.160156 2.535156 -0.101562 2.484375 -0.0625 C 2.429688 -0.0195312 2.378906 0 2.328125 0 L 1.078125 0 C 1.023438 0 0.96875 -0.0195312 0.90625 -0.0625 C 0.851562 -0.101562 0.828125 -0.160156 0.828125 -0.234375 L 0.828125 -8.234375 C 0.828125 -8.316406 0.851562 -8.375 0.90625 -8.40625 C 0.96875 -8.445312 1.023438 -8.46875 1.078125 -8.46875 L 2.296875 -8.46875 C 2.347656 -8.46875 2.40625 -8.445312 2.46875 -8.40625 C 2.53125 -8.363281 2.585938 -8.304688 2.640625 -8.234375 L 5.734375 -3.34375 L 5.734375 -8.234375 C 5.734375 -8.316406 5.757812 -8.375 5.8125 -8.40625 C 5.863281 -8.445312 5.914062 -8.46875 5.96875 -8.46875 L 7.21875 -8.46875 C 7.28125 -8.46875 7.335938 -8.445312 7.390625 -8.40625 C 7.441406 -8.375 7.46875 -8.316406 7.46875 -8.234375 L 7.46875 -0.234375 C 7.46875 -0.160156 7.441406 -0.101562 7.390625 -0.0625 C 7.335938 -0.0195312 7.28125 0 7.21875 0 L 6 0 C 5.875 0 5.757812 -0.078125 5.65625 -0.234375 Z M 5.65625 -0.234375 "/></g></g></g><g fill="#370000" fill-opacity="1"><g transform="translate(41.448343, 63.056909)"><g><path d="M 3.421875 -6.890625 L 2.5625 -6.890625 L 2.5625 -1.59375 L 3.421875 -1.59375 C 3.523438 -1.59375 3.65625 -1.601562 3.8125 -1.625 C 3.976562 -1.65625 4.140625 -1.71875 4.296875 -1.8125 C 4.460938 -1.90625 4.597656 -2.046875 4.703125 -2.234375 C 4.816406 -2.429688 4.875 -2.695312 4.875 -3.03125 L 4.875 -5.453125 C 4.875 -5.785156 4.816406 -6.046875 4.703125 -6.234375 C 4.597656 -6.429688 4.460938 -6.578125 4.296875 -6.671875 C 4.140625 -6.765625 3.976562 -6.820312 3.8125 -6.84375 C 3.65625 -6.875 3.523438 -6.890625 3.421875 -6.890625 Z M 3.453125 0 L 1.078125 0 C 1.023438 0 0.96875 -0.0195312 0.90625 -0.0625 C 0.851562 -0.101562 0.828125 -0.160156 0.828125 -0.234375 L 0.828125 -8.234375 C 0.828125 -8.316406 0.851562 -8.375 0.90625 -8.40625 C 0.96875 -8.445312 1.023438 -8.46875 1.078125 -8.46875 L 3.453125 -8.46875 C 4.085938 -8.46875 4.597656 -8.378906 4.984375 -8.203125 C 5.378906 -8.023438 5.6875 -7.800781 5.90625 -7.53125 C 6.132812 -7.257812 6.296875 -6.988281 6.390625 -6.71875 C 6.484375 -6.457031 6.539062 -6.234375 6.5625 -6.046875 C 6.59375 -5.867188 6.609375 -5.78125 6.609375 -5.78125 L 6.609375 -2.6875 C 6.609375 -2.6875 6.59375 -2.597656 6.5625 -2.421875 C 6.539062 -2.242188 6.484375 -2.019531 6.390625 -1.75 C 6.296875 -1.476562 6.132812 -1.207031 5.90625 -0.9375 C 5.6875 -0.664062 5.378906 -0.441406 4.984375 -0.265625 C 4.597656 -0.0859375 4.085938 0 3.453125 0 Z M 3.453125 0 "/></g></g></g><g fill="#370000" fill-opacity="1"><g transform="translate(51.441461, 63.056909)"><g><path d="M 4.046875 0.109375 C 3.398438 0.109375 2.863281 0.0195312 2.4375 -0.15625 C 2.019531 -0.34375 1.691406 -0.582031 1.453125 -0.875 C 1.222656 -1.175781 1.0625 -1.507812 0.96875 -1.875 C 0.875 -2.238281 0.828125 -2.597656 0.828125 -2.953125 L 0.828125 -8.234375 C 0.828125 -8.316406 0.851562 -8.375 0.90625 -8.40625 C 0.96875 -8.445312 1.023438 -8.46875 1.078125 -8.46875 L 2.328125 -8.46875 C 2.378906 -8.46875 2.429688 -8.445312 2.484375 -8.40625 C 2.535156 -8.375 2.5625 -8.316406 2.5625 -8.234375 L 2.5625 -2.953125 C 2.5625 -2.617188 2.617188 -2.351562 2.734375 -2.15625 C 2.847656 -1.957031 2.984375 -1.8125 3.140625 -1.71875 C 3.304688 -1.625 3.472656 -1.5625 3.640625 -1.53125 C 3.804688 -1.5 3.941406 -1.484375 4.046875 -1.484375 C 4.148438 -1.484375 4.285156 -1.5 4.453125 -1.53125 C 4.617188 -1.5625 4.78125 -1.625 4.9375 -1.71875 C 5.101562 -1.8125 5.242188 -1.957031 5.359375 -2.15625 C 5.472656 -2.351562 5.53125 -2.617188 5.53125 -2.953125 L 5.53125 -8.234375 C 5.53125 -8.316406 5.554688 -8.375 5.609375 -8.40625 C 5.660156 -8.445312 5.710938 -8.46875 5.765625 -8.46875 L 7.015625 -8.46875 C 7.078125 -8.46875 7.132812 -8.445312 7.1875 -8.40625 C 7.238281 -8.375 7.265625 -8.316406 7.265625 -8.234375 L 7.265625 -2.953125 C 7.265625 -2.597656 7.21875 -2.238281 7.125 -1.875 C 7.03125 -1.507812 6.863281 -1.175781 6.625 -0.875 C 6.394531 -0.582031 6.066406 -0.34375 5.640625 -0.15625 C 5.222656 0.0195312 4.691406 0.109375 4.046875 0.109375 Z M 4.046875 0.109375 "/></g></g></g><g fill="#370000" fill-opacity="1"><g transform="translate(62.228054, 63.056909)"><g><path d="M 5.140625 -6.84375 C 4.929688 -6.894531 4.707031 -6.9375 4.46875 -6.96875 C 4.226562 -7 3.984375 -7.015625 3.734375 -7.015625 C 3.316406 -7.015625 2.984375 -6.957031 2.734375 -6.84375 C 2.484375 -6.738281 2.359375 -6.515625 2.359375 -6.171875 C 2.359375 -5.929688 2.460938 -5.738281 2.671875 -5.59375 C 2.890625 -5.445312 3.164062 -5.320312 3.5 -5.21875 C 3.832031 -5.113281 4.1875 -5 4.5625 -4.875 C 4.945312 -4.75 5.304688 -4.582031 5.640625 -4.375 C 5.972656 -4.175781 6.242188 -3.914062 6.453125 -3.59375 C 6.671875 -3.28125 6.78125 -2.867188 6.78125 -2.359375 C 6.78125 -2.253906 6.757812 -2.101562 6.71875 -1.90625 C 6.6875 -1.71875 6.613281 -1.503906 6.5 -1.265625 C 6.394531 -1.035156 6.226562 -0.816406 6 -0.609375 C 5.769531 -0.398438 5.457031 -0.226562 5.0625 -0.09375 C 4.675781 0.0390625 4.1875 0.109375 3.59375 0.109375 C 3.59375 0.109375 3.5 0.0976562 3.3125 0.078125 C 3.132812 0.0664062 2.898438 0.0390625 2.609375 0 C 2.316406 -0.0507812 2.007812 -0.128906 1.6875 -0.234375 C 1.363281 -0.347656 1.066406 -0.5 0.796875 -0.6875 C 0.742188 -0.71875 0.710938 -0.75 0.703125 -0.78125 C 0.691406 -0.8125 0.6875 -0.847656 0.6875 -0.890625 C 0.6875 -0.941406 0.695312 -0.984375 0.71875 -1.015625 L 1.234375 -1.953125 C 1.253906 -1.984375 1.273438 -2.007812 1.296875 -2.03125 C 1.328125 -2.0625 1.363281 -2.078125 1.40625 -2.078125 C 1.445312 -2.078125 1.492188 -2.0625 1.546875 -2.03125 C 1.898438 -1.832031 2.265625 -1.6875 2.640625 -1.59375 C 3.015625 -1.5 3.351562 -1.453125 3.65625 -1.453125 C 4.09375 -1.453125 4.40625 -1.5 4.59375 -1.59375 C 4.789062 -1.6875 4.914062 -1.800781 4.96875 -1.9375 C 5.03125 -2.070312 5.0625 -2.207031 5.0625 -2.34375 C 5.0625 -2.613281 4.953125 -2.828125 4.734375 -2.984375 C 4.515625 -3.148438 4.238281 -3.289062 3.90625 -3.40625 C 3.582031 -3.519531 3.226562 -3.640625 2.84375 -3.765625 C 2.46875 -3.890625 2.113281 -4.039062 1.78125 -4.21875 C 1.445312 -4.40625 1.171875 -4.648438 0.953125 -4.953125 C 0.734375 -5.253906 0.625 -5.644531 0.625 -6.125 C 0.625 -6.707031 0.753906 -7.175781 1.015625 -7.53125 C 1.285156 -7.894531 1.644531 -8.160156 2.09375 -8.328125 C 2.539062 -8.492188 3.035156 -8.578125 3.578125 -8.578125 C 4.066406 -8.578125 4.472656 -8.546875 4.796875 -8.484375 C 5.128906 -8.421875 5.488281 -8.300781 5.875 -8.125 C 5.925781 -8.101562 5.957031 -8.078125 5.96875 -8.046875 C 5.976562 -8.015625 5.984375 -7.984375 5.984375 -7.953125 C 5.984375 -7.921875 5.976562 -7.890625 5.96875 -7.859375 C 5.957031 -7.828125 5.953125 -7.804688 5.953125 -7.796875 L 5.5625 -6.90625 C 5.519531 -6.832031 5.460938 -6.796875 5.390625 -6.796875 C 5.378906 -6.796875 5.335938 -6.800781 5.265625 -6.8125 C 5.203125 -6.820312 5.160156 -6.832031 5.140625 -6.84375 Z M 5.140625 -6.84375 "/></g></g></g><g fill="#370000" fill-opacity="1"><g transform="translate(72.261515, 63.056909)"><g><path d="M 0.671875 -8.46875 L 6.171875 -8.46875 C 6.253906 -8.46875 6.316406 -8.441406 6.359375 -8.390625 C 6.398438 -8.335938 6.421875 -8.285156 6.421875 -8.234375 L 6.421875 -7.125 C 6.421875 -7.070312 6.398438 -7.019531 6.359375 -6.96875 C 6.316406 -6.914062 6.253906 -6.890625 6.171875 -6.890625 L 4.296875 -6.890625 L 4.296875 -0.234375 C 4.296875 -0.160156 4.265625 -0.101562 4.203125 -0.0625 C 4.148438 -0.0195312 4.097656 0 4.046875 0 L 2.796875 0 C 2.742188 0 2.691406 -0.0195312 2.640625 -0.0625 C 2.585938 -0.101562 2.5625 -0.160156 2.5625 -0.234375 L 2.5625 -6.890625 L 0.671875 -6.890625 C 0.585938 -6.890625 0.523438 -6.914062 0.484375 -6.96875 C 0.453125 -7.019531 0.4375 -7.070312 0.4375 -7.125 L 0.4375 -8.234375 C 0.4375 -8.285156 0.453125 -8.335938 0.484375 -8.390625 C 0.523438 -8.441406 0.585938 -8.46875 0.671875 -8.46875 Z M 0.671875 -8.46875 "/></g></g></g><g fill="#370000" fill-opacity="1"><g transform="translate(81.797378, 63.056909)"><g><path d="M 4.90625 -0.15625 L 4.0625 -1.984375 C 3.96875 -1.984375 3.878906 -1.976562 3.796875 -1.96875 C 3.710938 -1.96875 3.625 -1.96875 3.53125 -1.96875 L 2.5625 -1.96875 L 2.5625 -0.234375 C 2.5625 -0.160156 2.535156 -0.101562 2.484375 -0.0625 C 2.429688 -0.0195312 2.378906 0 2.328125 0 L 1.078125 0 C 1.023438 0 0.96875 -0.0195312 0.90625 -0.0625 C 0.851562 -0.101562 0.828125 -0.160156 0.828125 -0.234375 L 0.828125 -8.234375 C 0.828125 -8.316406 0.851562 -8.375 0.90625 -8.40625 C 0.96875 -8.445312 1.023438 -8.46875 1.078125 -8.46875 L 3.53125 -8.46875 C 4.15625 -8.46875 4.664062 -8.378906 5.0625 -8.203125 C 5.46875 -8.023438 5.785156 -7.800781 6.015625 -7.53125 C 6.242188 -7.257812 6.40625 -6.988281 6.5 -6.71875 C 6.601562 -6.457031 6.664062 -6.234375 6.6875 -6.046875 C 6.707031 -5.867188 6.71875 -5.78125 6.71875 -5.78125 L 6.71875 -4.671875 C 6.71875 -4.671875 6.707031 -4.59375 6.6875 -4.4375 C 6.675781 -4.28125 6.632812 -4.085938 6.5625 -3.859375 C 6.488281 -3.628906 6.367188 -3.390625 6.203125 -3.140625 C 6.035156 -2.890625 5.800781 -2.664062 5.5 -2.46875 L 6.578125 -0.234375 C 6.578125 -0.160156 6.550781 -0.101562 6.5 -0.0625 C 6.445312 -0.0195312 6.394531 0 6.34375 0 L 5.140625 0 C 5.035156 0 4.957031 -0.0507812 4.90625 -0.15625 Z M 3.53125 -6.890625 L 2.5625 -6.890625 L 2.5625 -3.546875 L 3.53125 -3.546875 C 3.632812 -3.546875 3.765625 -3.5625 3.921875 -3.59375 C 4.085938 -3.625 4.253906 -3.6875 4.421875 -3.78125 C 4.585938 -3.875 4.722656 -4.019531 4.828125 -4.21875 C 4.929688 -4.414062 4.984375 -4.679688 4.984375 -5.015625 L 4.984375 -5.453125 C 4.984375 -5.785156 4.929688 -6.046875 4.828125 -6.234375 C 4.722656 -6.429688 4.585938 -6.578125 4.421875 -6.671875 C 4.253906 -6.765625 4.085938 -6.820312 3.921875 -6.84375 C 3.765625 -6.875 3.632812 -6.890625 3.53125 -6.890625 Z M 3.53125 -6.890625 "/></g></g></g><g fill="#370000" fill-opacity="1"><g transform="translate(91.642564, 63.056909)"><g><path d="M 4.875 -2.546875 L 4.875 -0.234375 C 4.875 -0.160156 4.84375 -0.101562 4.78125 -0.0625 C 4.726562 -0.0195312 4.675781 0 4.625 0 L 3.375 0 C 3.320312 0 3.269531 -0.0195312 3.21875 -0.0625 C 3.164062 -0.101562 3.140625 -0.160156 3.140625 -0.234375 L 3.140625 -2.546875 L 0.4375 -8.234375 C 0.4375 -8.316406 0.460938 -8.375 0.515625 -8.40625 C 0.566406 -8.445312 0.617188 -8.46875 0.671875 -8.46875 L 1.890625 -8.46875 C 2.003906 -8.46875 2.097656 -8.390625 2.171875 -8.234375 L 4 -4.390625 L 5.828125 -8.234375 C 5.898438 -8.390625 5.988281 -8.46875 6.09375 -8.46875 L 7.3125 -8.46875 C 7.375 -8.46875 7.429688 -8.445312 7.484375 -8.40625 C 7.535156 -8.375 7.5625 -8.316406 7.5625 -8.234375 Z M 4.875 -2.546875 "/></g></g></g><g fill="#bf2928" fill-opacity="1"><g transform="translate(46.78206, 70.564284)"><g><path d="M 2.1875 -1.546875 L 2.1875 -0.15625 C 2.1875 -0.144531 2.179688 -0.132812 2.171875 -0.125 C 2.097656 -0.0820312 2.003906 -0.0507812 1.890625 -0.03125 C 1.773438 -0.0078125 1.664062 0.00390625 1.5625 0.015625 C 1.457031 0.0234375 1.367188 0.03125 1.296875 0.03125 C 1.109375 0.03125 0.953125 0.0078125 0.828125 -0.03125 C 0.703125 -0.0820312 0.597656 -0.144531 0.515625 -0.21875 C 0.441406 -0.300781 0.378906 -0.390625 0.328125 -0.484375 C 0.285156 -0.578125 0.257812 -0.664062 0.25 -0.75 C 0.238281 -0.832031 0.234375 -0.90625 0.234375 -0.96875 L 0.234375 -1.796875 C 0.234375 -1.859375 0.238281 -1.929688 0.25 -2.015625 C 0.257812 -2.097656 0.285156 -2.1875 0.328125 -2.28125 C 0.378906 -2.375 0.441406 -2.457031 0.515625 -2.53125 C 0.597656 -2.613281 0.703125 -2.675781 0.828125 -2.71875 C 0.953125 -2.769531 1.109375 -2.796875 1.296875 -2.796875 C 1.398438 -2.796875 1.515625 -2.785156 1.640625 -2.765625 C 1.765625 -2.753906 1.878906 -2.734375 1.984375 -2.703125 C 2.003906 -2.691406 2.015625 -2.675781 2.015625 -2.65625 C 2.023438 -2.644531 2.03125 -2.640625 2.03125 -2.640625 L 1.96875 -2.25 C 1.957031 -2.226562 1.945312 -2.210938 1.9375 -2.203125 C 1.925781 -2.203125 1.914062 -2.203125 1.90625 -2.203125 C 1.71875 -2.253906 1.546875 -2.28125 1.390625 -2.28125 C 1.296875 -2.28125 1.203125 -2.265625 1.109375 -2.234375 C 1.023438 -2.203125 0.953125 -2.144531 0.890625 -2.0625 C 0.828125 -1.988281 0.796875 -1.882812 0.796875 -1.75 L 0.796875 -1.015625 C 0.796875 -0.878906 0.828125 -0.769531 0.890625 -0.6875 C 0.953125 -0.613281 1.023438 -0.5625 1.109375 -0.53125 C 1.203125 -0.5 1.296875 -0.484375 1.390625 -0.484375 C 1.441406 -0.484375 1.488281 -0.484375 1.53125 -0.484375 C 1.582031 -0.492188 1.640625 -0.503906 1.703125 -0.515625 L 1.703125 -1.171875 L 1.46875 -1.171875 C 1.445312 -1.171875 1.425781 -1.175781 1.40625 -1.1875 C 1.394531 -1.207031 1.390625 -1.226562 1.390625 -1.25 L 1.390625 -1.546875 C 1.390625 -1.566406 1.394531 -1.582031 1.40625 -1.59375 C 1.425781 -1.613281 1.445312 -1.625 1.46875 -1.625 L 2.109375 -1.625 C 2.128906 -1.625 2.144531 -1.613281 2.15625 -1.59375 C 2.175781 -1.582031 2.1875 -1.566406 2.1875 -1.546875 Z M 2.1875 -1.546875 "/></g></g></g><g fill="#bf2928" fill-opacity="1"><g transform="translate(52.750404, 70.564284)"><g><path d="M 0.84375 -0.515625 L 1.90625 -0.515625 C 1.925781 -0.515625 1.941406 -0.503906 1.953125 -0.484375 C 1.972656 -0.472656 1.984375 -0.457031 1.984375 -0.4375 L 1.984375 -0.078125 C 1.984375 -0.0546875 1.972656 -0.0351562 1.953125 -0.015625 C 1.941406 -0.00390625 1.925781 0 1.90625 0 L 0.34375 0 C 0.332031 0 0.316406 -0.00390625 0.296875 -0.015625 C 0.273438 -0.0351562 0.265625 -0.0546875 0.265625 -0.078125 L 0.265625 -2.6875 C 0.265625 -2.71875 0.273438 -2.738281 0.296875 -2.75 C 0.316406 -2.757812 0.332031 -2.765625 0.34375 -2.765625 L 1.90625 -2.765625 C 1.925781 -2.765625 1.941406 -2.753906 1.953125 -2.734375 C 1.972656 -2.722656 1.984375 -2.707031 1.984375 -2.6875 L 1.984375 -2.328125 C 1.984375 -2.304688 1.972656 -2.285156 1.953125 -2.265625 C 1.941406 -2.253906 1.925781 -2.25 1.90625 -2.25 L 0.84375 -2.25 L 0.84375 -1.625 L 1.703125 -1.625 C 1.722656 -1.625 1.738281 -1.613281 1.75 -1.59375 C 1.769531 -1.582031 1.78125 -1.566406 1.78125 -1.546875 L 1.78125 -1.1875 C 1.78125 -1.164062 1.769531 -1.144531 1.75 -1.125 C 1.738281 -1.113281 1.722656 -1.109375 1.703125 -1.109375 L 0.84375 -1.109375 Z M 0.84375 -0.515625 "/></g></g></g><g fill="#bf2928" fill-opacity="1"><g transform="translate(58.512524, 70.564284)"><g><path d="M 1 -2.765625 L 1.59375 -2.765625 C 1.601562 -2.765625 1.613281 -2.757812 1.625 -2.75 C 1.644531 -2.738281 1.660156 -2.726562 1.671875 -2.71875 L 2.46875 -0.078125 C 2.46875 -0.0546875 2.457031 -0.0351562 2.4375 -0.015625 C 2.425781 -0.00390625 2.410156 0 2.390625 0 L 2 0 C 1.957031 0 1.925781 -0.0234375 1.90625 -0.078125 L 1.796875 -0.421875 L 0.78125 -0.421875 L 0.6875 -0.078125 C 0.664062 -0.0234375 0.632812 0 0.59375 0 L 0.203125 0 C 0.179688 0 0.160156 -0.00390625 0.140625 -0.015625 C 0.128906 -0.0351562 0.125 -0.0546875 0.125 -0.078125 L 0.921875 -2.71875 C 0.929688 -2.726562 0.941406 -2.738281 0.953125 -2.75 C 0.972656 -2.757812 0.988281 -2.765625 1 -2.765625 Z M 1.296875 -2.078125 L 0.9375 -0.9375 L 1.640625 -0.9375 Z M 1.296875 -2.078125 "/></g></g></g><g fill="#bf2928" fill-opacity="1"><g transform="translate(64.612497, 70.564284)"><g><path d="M 1.609375 -0.046875 L 1.328125 -0.65625 C 1.296875 -0.644531 1.265625 -0.640625 1.234375 -0.640625 C 1.210938 -0.640625 1.1875 -0.640625 1.15625 -0.640625 L 0.84375 -0.640625 L 0.84375 -0.078125 C 0.84375 -0.0546875 0.832031 -0.0351562 0.8125 -0.015625 C 0.789062 -0.00390625 0.773438 0 0.765625 0 L 0.34375 0 C 0.332031 0 0.316406 -0.00390625 0.296875 -0.015625 C 0.273438 -0.0351562 0.265625 -0.0546875 0.265625 -0.078125 L 0.265625 -2.6875 C 0.265625 -2.71875 0.273438 -2.738281 0.296875 -2.75 C 0.316406 -2.757812 0.332031 -2.765625 0.34375 -2.765625 L 1.15625 -2.765625 C 1.351562 -2.765625 1.519531 -2.734375 1.65625 -2.671875 C 1.789062 -2.617188 1.894531 -2.546875 1.96875 -2.453125 C 2.039062 -2.367188 2.09375 -2.28125 2.125 -2.1875 C 2.15625 -2.101562 2.175781 -2.03125 2.1875 -1.96875 C 2.195312 -1.914062 2.203125 -1.890625 2.203125 -1.890625 L 2.203125 -1.53125 C 2.203125 -1.53125 2.195312 -1.503906 2.1875 -1.453125 C 2.175781 -1.398438 2.160156 -1.332031 2.140625 -1.25 C 2.117188 -1.175781 2.078125 -1.097656 2.015625 -1.015625 C 1.960938 -0.941406 1.890625 -0.875 1.796875 -0.8125 L 2.140625 -0.078125 C 2.140625 -0.0546875 2.128906 -0.0351562 2.109375 -0.015625 C 2.097656 -0.00390625 2.082031 0 2.0625 0 L 1.671875 0 C 1.640625 0 1.617188 -0.015625 1.609375 -0.046875 Z M 1.15625 -2.25 L 0.84375 -2.25 L 0.84375 -1.15625 L 1.15625 -1.15625 C 1.1875 -1.15625 1.226562 -1.160156 1.28125 -1.171875 C 1.332031 -1.179688 1.382812 -1.203125 1.4375 -1.234375 C 1.5 -1.265625 1.546875 -1.3125 1.578125 -1.375 C 1.609375 -1.4375 1.625 -1.523438 1.625 -1.640625 L 1.625 -1.78125 C 1.625 -1.882812 1.609375 -1.96875 1.578125 -2.03125 C 1.546875 -2.09375 1.5 -2.140625 1.4375 -2.171875 C 1.382812 -2.203125 1.332031 -2.222656 1.28125 -2.234375 C 1.226562 -2.242188 1.1875 -2.25 1.15625 -2.25 Z M 1.15625 -2.25 "/></g></g></g><g fill="#bf2928" fill-opacity="1"><g transform="translate(70.457982, 70.564284)"><g/></g></g><g fill="#bf2928" fill-opacity="1"><g transform="translate(74.842351, 70.564284)"><g><path d="M 1.15625 -2.25 L 0.84375 -2.25 L 0.84375 -1.15625 L 1.15625 -1.15625 C 1.1875 -1.15625 1.226562 -1.160156 1.28125 -1.171875 C 1.332031 -1.179688 1.382812 -1.203125 1.4375 -1.234375 C 1.5 -1.265625 1.546875 -1.3125 1.578125 -1.375 C 1.609375 -1.4375 1.625 -1.523438 1.625 -1.640625 L 1.625 -1.78125 C 1.625 -1.882812 1.609375 -1.96875 1.578125 -2.03125 C 1.546875 -2.09375 1.5 -2.140625 1.4375 -2.171875 C 1.382812 -2.203125 1.332031 -2.222656 1.28125 -2.234375 C 1.226562 -2.242188 1.1875 -2.25 1.15625 -2.25 Z M 0.34375 -2.765625 L 1.15625 -2.765625 C 1.351562 -2.765625 1.519531 -2.734375 1.65625 -2.671875 C 1.789062 -2.617188 1.894531 -2.546875 1.96875 -2.453125 C 2.039062 -2.367188 2.09375 -2.28125 2.125 -2.1875 C 2.15625 -2.101562 2.175781 -2.03125 2.1875 -1.96875 C 2.195312 -1.914062 2.203125 -1.890625 2.203125 -1.890625 L 2.203125 -1.53125 C 2.203125 -1.53125 2.195312 -1.5 2.1875 -1.4375 C 2.175781 -1.375 2.15625 -1.296875 2.125 -1.203125 C 2.09375 -1.117188 2.039062 -1.035156 1.96875 -0.953125 C 1.894531 -0.867188 1.789062 -0.796875 1.65625 -0.734375 C 1.53125 -0.671875 1.363281 -0.640625 1.15625 -0.640625 L 0.84375 -0.640625 L 0.84375 -0.078125 C 0.84375 -0.0546875 0.832031 -0.0351562 0.8125 -0.015625 C 0.789062 -0.00390625 0.773438 0 0.765625 0 L 0.34375 0 C 0.332031 0 0.316406 -0.00390625 0.296875 -0.015625 C 0.273438 -0.0351562 0.265625 -0.0546875 0.265625 -0.078125 L 0.265625 -2.6875 C 0.265625 -2.71875 0.273438 -2.738281 0.296875 -2.75 C 0.316406 -2.757812 0.332031 -2.765625 0.34375 -2.765625 Z M 0.34375 -2.765625 "/></g></g></g><g clip-path="url(#22f23bad5e)"><path fill="#bf2928" d="M 65.410156 13.726562 C 67.167969 14.15625 68.78125 14.820312 70.253906 15.773438 L 73.4375 13.347656 L 75.382812 15.34375 L 77.375 17.292969 L 74.996094 20.480469 C 75.902344 21.953125 76.613281 23.570312 76.988281 25.332031 L 80.933594 25.90625 L 80.933594 31.476562 L 76.988281 32.050781 C 76.613281 33.8125 75.894531 35.429688 74.996094 36.902344 L 77.375 40.089844 L 75.382812 42.039062 L 73.4375 44.035156 L 70.253906 41.65625 C 68.78125 42.5625 67.167969 43.273438 65.410156 43.648438 L 64.839844 47.550781 L 59.566406 47.550781 L 59.566406 40.40625 C 60.375 40.550781 61.226562 40.640625 62.085938 40.640625 C 68.683594 40.640625 74.007812 35.316406 74.007812 28.695312 C 74.007812 22.074219 68.683594 16.726562 62.085938 16.726562 C 59.519531 16.726562 57.144531 17.535156 55.199219 18.917969 L 47.929688 18.917969 L 46.742188 17.300781 L 48.734375 15.34375 L 50.679688 13.347656 L 53.863281 15.773438 C 55.335938 14.820312 56.949219 14.15625 58.707031 13.726562 L 59.28125 9.824219 L 64.839844 9.824219 Z M 52.492188 42.660156 L 50.6875 44.042969 L 48.734375 42.039062 L 46.742188 40.089844 L 49.164062 36.902344 C 48.214844 35.429688 47.550781 33.8125 47.121094 32.050781 L 43.230469 31.476562 L 43.230469 26.003906 L 50.402344 26.003906 C 50.214844 26.859375 50.117188 27.765625 50.117188 28.71875 C 50.117188 31.386719 51.019531 33.855469 52.492188 35.859375 Z M 52.492188 42.660156 " fill-opacity="1" fill-rule="nonzero"/></g><path fill="#bf2928" d="M 54.058594 36.09375 L 54.058594 41.753906 C 55.296875 42.515625 56.625 43.082031 58.003906 43.46875 L 58.003906 35.851562 C 59.242188 36.515625 60.613281 36.902344 62.09375 36.902344 C 64.324219 36.902344 66.414062 35.996094 67.886719 34.519531 C 69.355469 32.996094 70.261719 30.953125 70.261719 28.71875 C 70.261719 26.433594 69.355469 24.386719 67.886719 22.859375 C 66.414062 21.386719 64.324219 20.480469 62.09375 20.480469 L 49.121094 20.480469 L 49.164062 20.480469 C 48.402344 21.71875 47.785156 23.003906 47.363281 24.433594 L 62.085938 24.433594 C 63.222656 24.433594 64.316406 24.910156 65.078125 25.671875 C 65.839844 26.433594 66.363281 27.53125 66.363281 28.71875 C 66.363281 29.859375 65.839844 30.953125 65.078125 31.71875 C 64.316406 32.480469 63.222656 32.949219 62.085938 32.949219 C 61.089844 32.949219 60.183594 32.664062 59.476562 32.09375 C 58.714844 31.519531 58.191406 30.765625 57.953125 29.8125 L 54.058594 29.8125 Z M 54.058594 36.09375 " fill-opacity="1" fill-rule="nonzero"/></svg>