<svg xmlns="http://www.w3.org/2000/svg" xmlns:xlink="http://www.w3.org/1999/xlink" width="166" zoomAndPan="magnify" viewBox="0 0 124.5 82.499998" height="110" preserveAspectRatio="xMidYMid meet" version="1.0"><defs><filter x="0%" y="0%" width="100%" height="100%" id="c1103f8bdb"><feColorMatrix values="0 0 0 0 1 0 0 0 0 1 0 0 0 0 1 0 0 0 1 0" color-interpolation-filters="sRGB"/></filter><g/><mask id="1104817793"><g filter="url(#c1103f8bdb)"><rect x="-12.45" width="149.4" fill="#000000" y="-8.25" height="98.999997" fill-opacity="0.78"/></g></mask><clipPath id="2350ef4084"><path d="M 0.414062 1 L 3 1 L 3 5 L 0.414062 5 Z M 0.414062 1 " clip-rule="nonzero"/></clipPath><clipPath id="2d6047aa45"><rect x="0" width="60" y="0" height="6"/></clipPath><clipPath id="d901106b7e"><path d="M 8.300781 23.988281 L 44.183594 23.988281 L 44.183594 59.871094 L 8.300781 59.871094 Z M 8.300781 23.988281 " clip-rule="nonzero"/></clipPath></defs><g fill="#000000" fill-opacity="1"><g transform="translate(51.56943, 35.107725)"><g><path d="M 5.46875 -2.234375 L 2.546875 -2.234375 L 1.9375 0 L 0.015625 0 L 2.46875 -8.015625 C 2.5 -8.160156 2.578125 -8.273438 2.703125 -8.359375 C 2.828125 -8.453125 2.96875 -8.5 3.125 -8.5 L 4.890625 -8.5 C 5.242188 -8.5 5.460938 -8.335938 5.546875 -8.015625 L 8 0 L 6.09375 0 Z M 5.0625 -3.6875 L 4.359375 -6.28125 C 4.253906 -6.695312 4.191406 -6.96875 4.171875 -7.09375 L 3.84375 -7.09375 C 3.832031 -7.007812 3.804688 -6.875 3.765625 -6.6875 C 3.722656 -6.507812 3.6875 -6.375 3.65625 -6.28125 L 2.953125 -3.6875 Z M 5.0625 -3.6875 "/></g></g></g><g fill="#000000" fill-opacity="1"><g transform="translate(59.583483, 35.107725)"><g><path d="M 6.515625 -6.078125 L 6.515625 0 L 5.078125 0 L 4.9375 -0.84375 C 4.101562 -0.175781 3.265625 0.15625 2.421875 0.15625 C 1.285156 0.15625 0.71875 -0.40625 0.71875 -1.53125 L 0.71875 -6.078125 L 2.546875 -6.078125 L 2.546875 -2.078125 C 2.535156 -1.816406 2.578125 -1.632812 2.671875 -1.53125 C 2.773438 -1.425781 2.945312 -1.375 3.1875 -1.375 C 3.539062 -1.375 4.046875 -1.539062 4.703125 -1.875 L 4.703125 -6.078125 Z M 6.515625 -6.078125 "/></g></g></g><g fill="#000000" fill-opacity="1"><g transform="translate(66.857777, 35.107725)"><g><path d="M 3.125 -4.859375 L 3.125 -1.984375 C 3.125 -1.753906 3.171875 -1.59375 3.265625 -1.5 C 3.367188 -1.414062 3.539062 -1.375 3.78125 -1.375 L 4.5625 -1.375 L 4.765625 -0.09375 C 4.296875 0.0625 3.722656 0.140625 3.046875 0.140625 C 2.492188 0.140625 2.066406 -0.0078125 1.765625 -0.3125 C 1.460938 -0.625 1.3125 -1.054688 1.3125 -1.609375 L 1.3125 -4.859375 L 0.234375 -4.859375 L 0.234375 -6.015625 L 1.3125 -6.078125 L 1.3125 -7.78125 L 3.125 -7.78125 L 3.125 -6.078125 L 4.8125 -6.078125 L 4.8125 -4.859375 Z M 3.125 -4.859375 "/></g></g></g><g fill="#000000" fill-opacity="1"><g transform="translate(71.925126, 35.107725)"><g><path d="M 3.625 -6.25 C 4.757812 -6.25 5.5625 -6.003906 6.03125 -5.515625 C 6.507812 -5.023438 6.75 -4.195312 6.75 -3.03125 C 6.75 -1.863281 6.507812 -1.039062 6.03125 -0.5625 C 5.5625 -0.0820312 4.757812 0.15625 3.625 0.15625 C 2.476562 0.15625 1.671875 -0.0820312 1.203125 -0.5625 C 0.734375 -1.039062 0.5 -1.863281 0.5 -3.03125 C 0.5 -4.207031 0.734375 -5.035156 1.203125 -5.515625 C 1.671875 -6.003906 2.476562 -6.25 3.625 -6.25 Z M 3.625 -4.875 C 3.132812 -4.875 2.804688 -4.75 2.640625 -4.5 C 2.484375 -4.257812 2.40625 -3.769531 2.40625 -3.03125 C 2.40625 -2.3125 2.484375 -1.828125 2.640625 -1.578125 C 2.804688 -1.328125 3.132812 -1.203125 3.625 -1.203125 C 4.09375 -1.203125 4.410156 -1.328125 4.578125 -1.578125 C 4.742188 -1.828125 4.828125 -2.3125 4.828125 -3.03125 C 4.828125 -3.757812 4.742188 -4.25 4.578125 -4.5 C 4.421875 -4.75 4.101562 -4.875 3.625 -4.875 Z M 3.625 -4.875 "/></g></g></g><g fill="#000000" fill-opacity="1"><g transform="translate(51.56943, 46.408496)"><g><path d="M 7.75 -8.5 L 5.453125 -0.515625 C 5.410156 -0.359375 5.328125 -0.234375 5.203125 -0.140625 C 5.085938 -0.046875 4.945312 0 4.78125 0 L 3.0625 0 C 2.90625 0 2.765625 -0.046875 2.640625 -0.140625 C 2.523438 -0.234375 2.445312 -0.359375 2.40625 -0.515625 L 0.09375 -8.5 L 2.015625 -8.5 L 3.5625 -2.359375 C 3.644531 -2.035156 3.710938 -1.722656 3.765625 -1.421875 L 4.078125 -1.421875 C 4.109375 -1.578125 4.179688 -1.890625 4.296875 -2.359375 L 5.8125 -8.5 Z M 7.75 -8.5 "/></g></g></g><g fill="#000000" fill-opacity="1"><g transform="translate(59.410875, 46.408496)"><g><path d="M 4.625 -2.421875 L 2.421875 -2.421875 C 2.484375 -1.984375 2.617188 -1.6875 2.828125 -1.53125 C 3.035156 -1.382812 3.382812 -1.3125 3.875 -1.3125 C 4.519531 -1.3125 5.273438 -1.351562 6.140625 -1.4375 L 6.3125 -0.3125 C 5.675781 -0.0078125 4.789062 0.140625 3.65625 0.140625 C 2.519531 0.140625 1.707031 -0.101562 1.21875 -0.59375 C 0.738281 -1.082031 0.5 -1.894531 0.5 -3.03125 C 0.5 -4.21875 0.734375 -5.050781 1.203125 -5.53125 C 1.671875 -6.007812 2.46875 -6.25 3.59375 -6.25 C 4.601562 -6.25 5.332031 -6.070312 5.78125 -5.71875 C 6.226562 -5.375 6.457031 -4.84375 6.46875 -4.125 C 6.46875 -3.5625 6.320312 -3.132812 6.03125 -2.84375 C 5.738281 -2.5625 5.269531 -2.421875 4.625 -2.421875 Z M 2.390625 -3.53125 L 4.125 -3.53125 C 4.34375 -3.53125 4.488281 -3.582031 4.5625 -3.6875 C 4.644531 -3.789062 4.6875 -3.945312 4.6875 -4.15625 C 4.6875 -4.445312 4.609375 -4.644531 4.453125 -4.75 C 4.304688 -4.863281 4.039062 -4.921875 3.65625 -4.921875 C 3.1875 -4.921875 2.863281 -4.828125 2.6875 -4.640625 C 2.507812 -4.453125 2.410156 -4.082031 2.390625 -3.53125 Z M 2.390625 -3.53125 "/></g></g></g><g fill="#000000" fill-opacity="1"><g transform="translate(66.315293, 46.408496)"><g><path d="M 5.109375 -6.25 L 4.9375 -4.5625 L 4.4375 -4.5625 C 4.03125 -4.5625 3.410156 -4.421875 2.578125 -4.140625 L 2.578125 0 L 0.75 0 L 0.75 -6.078125 L 2.171875 -6.078125 L 2.328125 -5.1875 C 3.160156 -5.894531 3.984375 -6.25 4.796875 -6.25 Z M 5.109375 -6.25 "/></g></g></g><g fill="#000000" fill-opacity="1"><g transform="translate(71.55525, 46.408496)"><g><path d="M 6.578125 -8.625 L 6.578125 0 L 5.125 0 L 4.984375 -0.890625 C 4.398438 -0.203125 3.625 0.140625 2.65625 0.140625 C 1.90625 0.140625 1.359375 -0.128906 1.015625 -0.671875 C 0.671875 -1.210938 0.5 -2.019531 0.5 -3.09375 C 0.5 -4.257812 0.6875 -5.078125 1.0625 -5.546875 C 1.445312 -6.015625 2.035156 -6.25 2.828125 -6.25 C 3.609375 -6.25 4.269531 -6.066406 4.8125 -5.703125 C 4.769531 -6.160156 4.75 -6.585938 4.75 -6.984375 L 4.75 -8.625 Z M 4.75 -1.84375 L 4.75 -4.65625 C 4.195312 -4.8125 3.765625 -4.890625 3.453125 -4.890625 C 3.035156 -4.890625 2.75 -4.773438 2.59375 -4.546875 C 2.445312 -4.316406 2.375 -3.835938 2.375 -3.109375 C 2.375 -2.410156 2.445312 -1.941406 2.59375 -1.703125 C 2.75 -1.472656 3.015625 -1.359375 3.390625 -1.359375 C 3.640625 -1.359375 3.851562 -1.390625 4.03125 -1.453125 C 4.21875 -1.523438 4.457031 -1.65625 4.75 -1.84375 Z M 4.75 -1.84375 "/></g></g></g><g fill="#000000" fill-opacity="1"><g transform="translate(78.878865, 46.408496)"><g><path d="M 4.625 -2.421875 L 2.421875 -2.421875 C 2.484375 -1.984375 2.617188 -1.6875 2.828125 -1.53125 C 3.035156 -1.382812 3.382812 -1.3125 3.875 -1.3125 C 4.519531 -1.3125 5.273438 -1.351562 6.140625 -1.4375 L 6.3125 -0.3125 C 5.675781 -0.0078125 4.789062 0.140625 3.65625 0.140625 C 2.519531 0.140625 1.707031 -0.101562 1.21875 -0.59375 C 0.738281 -1.082031 0.5 -1.894531 0.5 -3.03125 C 0.5 -4.21875 0.734375 -5.050781 1.203125 -5.53125 C 1.671875 -6.007812 2.46875 -6.25 3.59375 -6.25 C 4.601562 -6.25 5.332031 -6.070312 5.78125 -5.71875 C 6.226562 -5.375 6.457031 -4.84375 6.46875 -4.125 C 6.46875 -3.5625 6.320312 -3.132812 6.03125 -2.84375 C 5.738281 -2.5625 5.269531 -2.421875 4.625 -2.421875 Z M 2.390625 -3.53125 L 4.125 -3.53125 C 4.34375 -3.53125 4.488281 -3.582031 4.5625 -3.6875 C 4.644531 -3.789062 4.6875 -3.945312 4.6875 -4.15625 C 4.6875 -4.445312 4.609375 -4.644531 4.453125 -4.75 C 4.304688 -4.863281 4.039062 -4.921875 3.65625 -4.921875 C 3.1875 -4.921875 2.863281 -4.828125 2.6875 -4.640625 C 2.507812 -4.453125 2.410156 -4.082031 2.390625 -3.53125 Z M 2.390625 -3.53125 "/></g></g></g><g fill="#000000" fill-opacity="1"><g transform="translate(85.783283, 46.408496)"><g><path d="M 1.28125 -1.859375 L 1.71875 -1.859375 C 1.957031 -1.859375 2.117188 -1.8125 2.203125 -1.71875 C 2.296875 -1.632812 2.34375 -1.472656 2.34375 -1.234375 L 2.34375 -0.4375 C 2.34375 0.375 2.132812 1.125 1.71875 1.8125 L 0.96875 1.578125 C 1.082031 1.085938 1.140625 0.5625 1.140625 0 C 0.804688 0 0.628906 -0.1875 0.609375 -0.5625 L 0.625 -1.234375 C 0.632812 -1.472656 0.6875 -1.632812 0.78125 -1.71875 C 0.875 -1.8125 1.039062 -1.859375 1.28125 -1.859375 Z M 1.28125 -1.859375 "/></g></g></g><g fill="#000000" fill-opacity="1"><g transform="translate(88.779308, 46.408496)"><g/></g></g><g fill="#000000" fill-opacity="1"><g transform="translate(91.45477, 46.408496)"><g><path d="M 2.71875 -8.5 L 2.71875 -2.15625 C 2.71875 -1.9375 2.765625 -1.773438 2.859375 -1.671875 C 2.960938 -1.578125 3.132812 -1.53125 3.375 -1.53125 L 6.296875 -1.53125 L 6.390625 -0.09375 C 5.554688 -0.0078125 4.351562 0.03125 2.78125 0.03125 C 2.125 0.03125 1.632812 -0.128906 1.3125 -0.453125 C 1 -0.785156 0.84375 -1.226562 0.84375 -1.78125 L 0.84375 -8.5 Z M 2.71875 -8.5 "/></g></g></g><g fill="#000000" fill-opacity="1"><g transform="translate(98.013967, 46.408496)"><g><path d="M 6.578125 -8.625 L 6.578125 0 L 5.125 0 L 4.984375 -0.890625 C 4.398438 -0.203125 3.625 0.140625 2.65625 0.140625 C 1.90625 0.140625 1.359375 -0.128906 1.015625 -0.671875 C 0.671875 -1.210938 0.5 -2.019531 0.5 -3.09375 C 0.5 -4.257812 0.6875 -5.078125 1.0625 -5.546875 C 1.445312 -6.015625 2.035156 -6.25 2.828125 -6.25 C 3.609375 -6.25 4.269531 -6.066406 4.8125 -5.703125 C 4.769531 -6.160156 4.75 -6.585938 4.75 -6.984375 L 4.75 -8.625 Z M 4.75 -1.84375 L 4.75 -4.65625 C 4.195312 -4.8125 3.765625 -4.890625 3.453125 -4.890625 C 3.035156 -4.890625 2.75 -4.773438 2.59375 -4.546875 C 2.445312 -4.316406 2.375 -3.835938 2.375 -3.109375 C 2.375 -2.410156 2.445312 -1.941406 2.59375 -1.703125 C 2.75 -1.472656 3.015625 -1.359375 3.390625 -1.359375 C 3.640625 -1.359375 3.851562 -1.390625 4.03125 -1.453125 C 4.21875 -1.523438 4.457031 -1.65625 4.75 -1.84375 Z M 4.75 -1.84375 "/></g></g></g><g fill="#000000" fill-opacity="1"><g transform="translate(105.337582, 46.408496)"><g><path d="M 0.90625 -4.71875 L 0.734375 -5.953125 C 1.828125 -6.148438 2.882812 -6.25 3.90625 -6.25 C 4.726562 -6.25 5.332031 -6.082031 5.71875 -5.75 C 6.101562 -5.414062 6.296875 -4.835938 6.296875 -4.015625 L 6.296875 0 L 4.859375 0 L 4.671875 -0.921875 C 4.066406 -0.210938 3.316406 0.140625 2.421875 0.140625 C 1.835938 0.140625 1.359375 -0.0078125 0.984375 -0.3125 C 0.617188 -0.625 0.4375 -1.054688 0.4375 -1.609375 L 0.4375 -2.21875 C 0.4375 -2.707031 0.601562 -3.085938 0.9375 -3.359375 C 1.269531 -3.628906 1.726562 -3.765625 2.3125 -3.765625 L 4.46875 -3.765625 L 4.46875 -4.03125 C 4.46875 -4.34375 4.398438 -4.550781 4.265625 -4.65625 C 4.128906 -4.757812 3.863281 -4.8125 3.46875 -4.8125 C 2.800781 -4.8125 1.945312 -4.78125 0.90625 -4.71875 Z M 2.25 -2.078125 L 2.25 -1.84375 C 2.25 -1.425781 2.484375 -1.21875 2.953125 -1.21875 C 3.453125 -1.21875 3.957031 -1.414062 4.46875 -1.8125 L 4.46875 -2.65625 L 2.828125 -2.65625 C 2.441406 -2.65625 2.25 -2.460938 2.25 -2.078125 Z M 2.25 -2.078125 "/></g></g></g><g fill="#000000" fill-opacity="1"><g transform="translate(112.328304, 46.408496)"><g><path d="M 1.265625 -1.859375 L 1.765625 -1.859375 C 2.003906 -1.859375 2.171875 -1.8125 2.265625 -1.71875 C 2.359375 -1.632812 2.40625 -1.472656 2.40625 -1.234375 L 2.40625 -0.640625 C 2.40625 -0.398438 2.359375 -0.234375 2.265625 -0.140625 C 2.171875 -0.046875 2.003906 0 1.765625 0 L 1.265625 0 C 1.023438 0 0.859375 -0.046875 0.765625 -0.140625 C 0.671875 -0.234375 0.625 -0.398438 0.625 -0.640625 L 0.625 -1.234375 C 0.625 -1.472656 0.671875 -1.632812 0.765625 -1.71875 C 0.859375 -1.8125 1.023438 -1.859375 1.265625 -1.859375 Z M 1.265625 -1.859375 "/></g></g></g><g mask="url(#1104817793)"><g transform="matrix(1, 0, 0, 1, 51, 54)"><g clip-path="url(#2d6047aa45)"><g clip-path="url(#2350ef4084)"><g fill="#000000" fill-opacity="1"><g transform="translate(0.569431, 4.690464)"><g><path d="M 2.328125 -2.890625 L 2.328125 -2.453125 L 1.453125 -2.453125 L 1.453125 0 L 0.921875 0 L 0.921875 -2.453125 L 0.046875 -2.453125 L 0.046875 -2.890625 Z M 2.328125 -2.890625 "/></g></g></g></g><g fill="#000000" fill-opacity="1"><g transform="translate(3.392657, 4.690464)"><g><path d="M 2.109375 -2.890625 L 2.109375 -2.46875 L 0.828125 -2.46875 L 0.828125 -1.65625 L 1.84375 -1.65625 L 1.84375 -1.25 L 0.828125 -1.25 L 0.828125 -0.4375 L 2.109375 -0.4375 L 2.109375 0 L 0.296875 0 L 0.296875 -2.890625 Z M 2.109375 -2.890625 "/></g></g></g><g fill="#000000" fill-opacity="1"><g transform="translate(6.125793, 4.690464)"><g><path d="M 2.28125 -0.6875 C 2.3125 -0.6875 2.335938 -0.671875 2.359375 -0.640625 L 2.5625 -0.421875 C 2.445312 -0.273438 2.300781 -0.160156 2.125 -0.078125 C 1.957031 -0.00390625 1.753906 0.03125 1.515625 0.03125 C 1.304688 0.03125 1.113281 -0.00390625 0.9375 -0.078125 C 0.769531 -0.148438 0.625 -0.25 0.5 -0.375 C 0.375 -0.507812 0.28125 -0.664062 0.21875 -0.84375 C 0.15625 -1.03125 0.125 -1.234375 0.125 -1.453125 C 0.125 -1.660156 0.160156 -1.851562 0.234375 -2.03125 C 0.304688 -2.21875 0.40625 -2.375 0.53125 -2.5 C 0.664062 -2.632812 0.820312 -2.738281 1 -2.8125 C 1.1875 -2.882812 1.390625 -2.921875 1.609375 -2.921875 C 1.828125 -2.921875 2.015625 -2.882812 2.171875 -2.8125 C 2.328125 -2.75 2.460938 -2.660156 2.578125 -2.546875 L 2.40625 -2.296875 C 2.394531 -2.285156 2.378906 -2.269531 2.359375 -2.25 C 2.347656 -2.238281 2.328125 -2.234375 2.296875 -2.234375 C 2.265625 -2.234375 2.234375 -2.242188 2.203125 -2.265625 C 2.171875 -2.296875 2.128906 -2.320312 2.078125 -2.34375 C 2.023438 -2.375 1.960938 -2.398438 1.890625 -2.421875 C 1.816406 -2.453125 1.722656 -2.46875 1.609375 -2.46875 C 1.472656 -2.46875 1.347656 -2.441406 1.234375 -2.390625 C 1.117188 -2.347656 1.019531 -2.28125 0.9375 -2.1875 C 0.851562 -2.101562 0.785156 -2 0.734375 -1.875 C 0.691406 -1.75 0.671875 -1.609375 0.671875 -1.453125 C 0.671875 -1.285156 0.691406 -1.140625 0.734375 -1.015625 C 0.785156 -0.890625 0.847656 -0.78125 0.921875 -0.6875 C 1.003906 -0.601562 1.097656 -0.535156 1.203125 -0.484375 C 1.316406 -0.441406 1.429688 -0.421875 1.546875 -0.421875 C 1.617188 -0.421875 1.6875 -0.425781 1.75 -0.4375 C 1.8125 -0.445312 1.863281 -0.457031 1.90625 -0.46875 C 1.957031 -0.488281 2.003906 -0.507812 2.046875 -0.53125 C 2.097656 -0.5625 2.144531 -0.597656 2.1875 -0.640625 C 2.195312 -0.648438 2.207031 -0.660156 2.21875 -0.671875 C 2.238281 -0.679688 2.257812 -0.6875 2.28125 -0.6875 Z M 2.28125 -0.6875 "/></g></g></g><g fill="#000000" fill-opacity="1"><g transform="translate(9.251312, 4.690464)"><g><path d="M 0.578125 -2.890625 C 0.597656 -2.890625 0.613281 -2.890625 0.625 -2.890625 C 0.644531 -2.890625 0.660156 -2.882812 0.671875 -2.875 C 0.691406 -2.875 0.707031 -2.863281 0.71875 -2.84375 C 0.726562 -2.832031 0.738281 -2.820312 0.75 -2.8125 L 2.265625 -0.875 C 2.265625 -0.914062 2.265625 -0.957031 2.265625 -1 C 2.265625 -1.050781 2.265625 -1.097656 2.265625 -1.140625 L 2.265625 -2.890625 L 2.734375 -2.890625 L 2.734375 0 L 2.453125 0 C 2.410156 0 2.375 -0.00390625 2.34375 -0.015625 C 2.320312 -0.0351562 2.296875 -0.0625 2.265625 -0.09375 L 0.75 -2.015625 C 0.757812 -1.972656 0.765625 -1.929688 0.765625 -1.890625 C 0.765625 -1.847656 0.765625 -1.8125 0.765625 -1.78125 L 0.765625 0 L 0.296875 0 L 0.296875 -2.890625 Z M 0.578125 -2.890625 "/></g></g></g><g fill="#000000" fill-opacity="1"><g transform="translate(12.719164, 4.690464)"><g><path d="M 3.0625 -1.453125 C 3.0625 -1.234375 3.023438 -1.035156 2.953125 -0.859375 C 2.890625 -0.679688 2.789062 -0.523438 2.65625 -0.390625 C 2.53125 -0.253906 2.378906 -0.148438 2.203125 -0.078125 C 2.023438 -0.00390625 1.828125 0.03125 1.609375 0.03125 C 1.390625 0.03125 1.1875 -0.00390625 1 -0.078125 C 0.820312 -0.148438 0.664062 -0.253906 0.53125 -0.390625 C 0.40625 -0.523438 0.304688 -0.679688 0.234375 -0.859375 C 0.171875 -1.035156 0.140625 -1.234375 0.140625 -1.453125 C 0.140625 -1.660156 0.171875 -1.851562 0.234375 -2.03125 C 0.304688 -2.21875 0.40625 -2.375 0.53125 -2.5 C 0.664062 -2.632812 0.820312 -2.738281 1 -2.8125 C 1.1875 -2.882812 1.390625 -2.921875 1.609375 -2.921875 C 1.828125 -2.921875 2.023438 -2.882812 2.203125 -2.8125 C 2.378906 -2.738281 2.53125 -2.632812 2.65625 -2.5 C 2.789062 -2.375 2.890625 -2.21875 2.953125 -2.03125 C 3.023438 -1.851562 3.0625 -1.660156 3.0625 -1.453125 Z M 2.515625 -1.453125 C 2.515625 -1.609375 2.492188 -1.75 2.453125 -1.875 C 2.410156 -2 2.347656 -2.101562 2.265625 -2.1875 C 2.191406 -2.28125 2.097656 -2.347656 1.984375 -2.390625 C 1.867188 -2.441406 1.742188 -2.46875 1.609375 -2.46875 C 1.460938 -2.46875 1.332031 -2.441406 1.21875 -2.390625 C 1.101562 -2.347656 1.003906 -2.28125 0.921875 -2.1875 C 0.847656 -2.101562 0.789062 -2 0.75 -1.875 C 0.707031 -1.75 0.6875 -1.609375 0.6875 -1.453125 C 0.6875 -1.285156 0.707031 -1.140625 0.75 -1.015625 C 0.789062 -0.890625 0.847656 -0.78125 0.921875 -0.6875 C 1.003906 -0.601562 1.101562 -0.535156 1.21875 -0.484375 C 1.332031 -0.441406 1.460938 -0.421875 1.609375 -0.421875 C 1.742188 -0.421875 1.867188 -0.441406 1.984375 -0.484375 C 2.097656 -0.535156 2.191406 -0.601562 2.265625 -0.6875 C 2.347656 -0.78125 2.410156 -0.890625 2.453125 -1.015625 C 2.492188 -1.140625 2.515625 -1.285156 2.515625 -1.453125 Z M 2.515625 -1.453125 "/></g></g></g><g fill="#000000" fill-opacity="1"><g transform="translate(16.361185, 4.690464)"><g><path d="M 0.828125 -0.4375 L 1.984375 -0.4375 L 1.984375 0 L 0.296875 0 L 0.296875 -2.890625 L 0.828125 -2.890625 Z M 0.828125 -0.4375 "/></g></g></g><g fill="#000000" fill-opacity="1"><g transform="translate(18.872107, 4.690464)"><g><path d="M 3.0625 -1.453125 C 3.0625 -1.234375 3.023438 -1.035156 2.953125 -0.859375 C 2.890625 -0.679688 2.789062 -0.523438 2.65625 -0.390625 C 2.53125 -0.253906 2.378906 -0.148438 2.203125 -0.078125 C 2.023438 -0.00390625 1.828125 0.03125 1.609375 0.03125 C 1.390625 0.03125 1.1875 -0.00390625 1 -0.078125 C 0.820312 -0.148438 0.664062 -0.253906 0.53125 -0.390625 C 0.40625 -0.523438 0.304688 -0.679688 0.234375 -0.859375 C 0.171875 -1.035156 0.140625 -1.234375 0.140625 -1.453125 C 0.140625 -1.660156 0.171875 -1.851562 0.234375 -2.03125 C 0.304688 -2.21875 0.40625 -2.375 0.53125 -2.5 C 0.664062 -2.632812 0.820312 -2.738281 1 -2.8125 C 1.1875 -2.882812 1.390625 -2.921875 1.609375 -2.921875 C 1.828125 -2.921875 2.023438 -2.882812 2.203125 -2.8125 C 2.378906 -2.738281 2.53125 -2.632812 2.65625 -2.5 C 2.789062 -2.375 2.890625 -2.21875 2.953125 -2.03125 C 3.023438 -1.851562 3.0625 -1.660156 3.0625 -1.453125 Z M 2.515625 -1.453125 C 2.515625 -1.609375 2.492188 -1.75 2.453125 -1.875 C 2.410156 -2 2.347656 -2.101562 2.265625 -2.1875 C 2.191406 -2.28125 2.097656 -2.347656 1.984375 -2.390625 C 1.867188 -2.441406 1.742188 -2.46875 1.609375 -2.46875 C 1.460938 -2.46875 1.332031 -2.441406 1.21875 -2.390625 C 1.101562 -2.347656 1.003906 -2.28125 0.921875 -2.1875 C 0.847656 -2.101562 0.789062 -2 0.75 -1.875 C 0.707031 -1.75 0.6875 -1.609375 0.6875 -1.453125 C 0.6875 -1.285156 0.707031 -1.140625 0.75 -1.015625 C 0.789062 -0.890625 0.847656 -0.78125 0.921875 -0.6875 C 1.003906 -0.601562 1.101562 -0.535156 1.21875 -0.484375 C 1.332031 -0.441406 1.460938 -0.421875 1.609375 -0.421875 C 1.742188 -0.421875 1.867188 -0.441406 1.984375 -0.484375 C 2.097656 -0.535156 2.191406 -0.601562 2.265625 -0.6875 C 2.347656 -0.78125 2.410156 -0.890625 2.453125 -1.015625 C 2.492188 -1.140625 2.515625 -1.285156 2.515625 -1.453125 Z M 2.515625 -1.453125 "/></g></g></g><g fill="#000000" fill-opacity="1"><g transform="translate(22.514127, 4.690464)"><g><path d="M 1.625 -0.390625 C 1.738281 -0.390625 1.84375 -0.398438 1.9375 -0.421875 C 2.03125 -0.453125 2.113281 -0.484375 2.1875 -0.515625 L 2.1875 -1.046875 L 1.828125 -1.046875 C 1.796875 -1.046875 1.769531 -1.054688 1.75 -1.078125 C 1.726562 -1.097656 1.71875 -1.117188 1.71875 -1.140625 L 1.71875 -1.453125 L 2.6875 -1.453125 L 2.6875 -0.28125 C 2.613281 -0.226562 2.535156 -0.179688 2.453125 -0.140625 C 2.367188 -0.0976562 2.28125 -0.0625 2.1875 -0.03125 C 2.101562 -0.0078125 2.007812 0.00390625 1.90625 0.015625 C 1.800781 0.0234375 1.691406 0.03125 1.578125 0.03125 C 1.367188 0.03125 1.175781 -0.00390625 1 -0.078125 C 0.820312 -0.148438 0.664062 -0.25 0.53125 -0.375 C 0.40625 -0.507812 0.304688 -0.664062 0.234375 -0.84375 C 0.160156 -1.03125 0.125 -1.234375 0.125 -1.453125 C 0.125 -1.660156 0.160156 -1.851562 0.234375 -2.03125 C 0.304688 -2.21875 0.40625 -2.375 0.53125 -2.5 C 0.65625 -2.632812 0.8125 -2.738281 1 -2.8125 C 1.1875 -2.882812 1.394531 -2.921875 1.625 -2.921875 C 1.863281 -2.921875 2.066406 -2.882812 2.234375 -2.8125 C 2.410156 -2.75 2.5625 -2.660156 2.6875 -2.546875 L 2.53125 -2.296875 C 2.5 -2.253906 2.457031 -2.234375 2.40625 -2.234375 C 2.375 -2.234375 2.335938 -2.242188 2.296875 -2.265625 C 2.253906 -2.285156 2.210938 -2.304688 2.171875 -2.328125 C 2.128906 -2.359375 2.078125 -2.382812 2.015625 -2.40625 C 1.960938 -2.425781 1.898438 -2.441406 1.828125 -2.453125 C 1.765625 -2.460938 1.691406 -2.46875 1.609375 -2.46875 C 1.460938 -2.46875 1.332031 -2.441406 1.21875 -2.390625 C 1.101562 -2.347656 1.003906 -2.28125 0.921875 -2.1875 C 0.847656 -2.09375 0.785156 -1.984375 0.734375 -1.859375 C 0.691406 -1.734375 0.671875 -1.597656 0.671875 -1.453125 C 0.671875 -1.285156 0.691406 -1.132812 0.734375 -1 C 0.785156 -0.875 0.851562 -0.765625 0.9375 -0.671875 C 1.019531 -0.578125 1.117188 -0.503906 1.234375 -0.453125 C 1.359375 -0.410156 1.488281 -0.390625 1.625 -0.390625 Z M 1.625 -0.390625 "/></g></g></g><g fill="#000000" fill-opacity="1"><g transform="translate(25.849849, 4.690464)"><g><path d="M 0.890625 0 L 0.359375 0 L 0.359375 -2.890625 L 0.890625 -2.890625 Z M 0.890625 0 "/></g></g></g><g fill="#000000" fill-opacity="1"><g transform="translate(27.54798, 4.690464)"><g><path d="M 2.828125 0 L 2.421875 0 C 2.367188 0 2.328125 -0.0078125 2.296875 -0.03125 C 2.273438 -0.0507812 2.253906 -0.0820312 2.234375 -0.125 L 2.015625 -0.71875 L 0.828125 -0.71875 L 0.609375 -0.125 C 0.597656 -0.09375 0.578125 -0.0625 0.546875 -0.03125 C 0.515625 -0.0078125 0.476562 0 0.4375 0 L 0.015625 0 L 1.140625 -2.890625 L 1.703125 -2.890625 Z M 0.96875 -1.09375 L 1.890625 -1.09375 L 1.53125 -2.046875 C 1.519531 -2.097656 1.503906 -2.148438 1.484375 -2.203125 C 1.460938 -2.265625 1.441406 -2.328125 1.421875 -2.390625 C 1.398438 -2.328125 1.378906 -2.265625 1.359375 -2.203125 C 1.347656 -2.140625 1.332031 -2.085938 1.3125 -2.046875 Z M 0.96875 -1.09375 "/></g></g></g><g fill="#000000" fill-opacity="1"><g transform="translate(30.831652, 4.690464)"><g/></g></g><g fill="#000000" fill-opacity="1"><g transform="translate(32.045316, 4.690464)"><g><path d="M 2.109375 -2.890625 L 2.109375 -2.46875 L 0.828125 -2.46875 L 0.828125 -1.65625 L 1.84375 -1.65625 L 1.84375 -1.25 L 0.828125 -1.25 L 0.828125 -0.4375 L 2.109375 -0.4375 L 2.109375 0 L 0.296875 0 L 0.296875 -2.890625 Z M 2.109375 -2.890625 "/></g></g></g><g fill="#000000" fill-opacity="1"><g transform="translate(34.778451, 4.690464)"><g><path d="M 2.28125 -0.6875 C 2.3125 -0.6875 2.335938 -0.671875 2.359375 -0.640625 L 2.5625 -0.421875 C 2.445312 -0.273438 2.300781 -0.160156 2.125 -0.078125 C 1.957031 -0.00390625 1.753906 0.03125 1.515625 0.03125 C 1.304688 0.03125 1.113281 -0.00390625 0.9375 -0.078125 C 0.769531 -0.148438 0.625 -0.25 0.5 -0.375 C 0.375 -0.507812 0.28125 -0.664062 0.21875 -0.84375 C 0.15625 -1.03125 0.125 -1.234375 0.125 -1.453125 C 0.125 -1.660156 0.160156 -1.851562 0.234375 -2.03125 C 0.304688 -2.21875 0.40625 -2.375 0.53125 -2.5 C 0.664062 -2.632812 0.820312 -2.738281 1 -2.8125 C 1.1875 -2.882812 1.390625 -2.921875 1.609375 -2.921875 C 1.828125 -2.921875 2.015625 -2.882812 2.171875 -2.8125 C 2.328125 -2.75 2.460938 -2.660156 2.578125 -2.546875 L 2.40625 -2.296875 C 2.394531 -2.285156 2.378906 -2.269531 2.359375 -2.25 C 2.347656 -2.238281 2.328125 -2.234375 2.296875 -2.234375 C 2.265625 -2.234375 2.234375 -2.242188 2.203125 -2.265625 C 2.171875 -2.296875 2.128906 -2.320312 2.078125 -2.34375 C 2.023438 -2.375 1.960938 -2.398438 1.890625 -2.421875 C 1.816406 -2.453125 1.722656 -2.46875 1.609375 -2.46875 C 1.472656 -2.46875 1.347656 -2.441406 1.234375 -2.390625 C 1.117188 -2.347656 1.019531 -2.28125 0.9375 -2.1875 C 0.851562 -2.101562 0.785156 -2 0.734375 -1.875 C 0.691406 -1.75 0.671875 -1.609375 0.671875 -1.453125 C 0.671875 -1.285156 0.691406 -1.140625 0.734375 -1.015625 C 0.785156 -0.890625 0.847656 -0.78125 0.921875 -0.6875 C 1.003906 -0.601562 1.097656 -0.535156 1.203125 -0.484375 C 1.316406 -0.441406 1.429688 -0.421875 1.546875 -0.421875 C 1.617188 -0.421875 1.6875 -0.425781 1.75 -0.4375 C 1.8125 -0.445312 1.863281 -0.457031 1.90625 -0.46875 C 1.957031 -0.488281 2.003906 -0.507812 2.046875 -0.53125 C 2.097656 -0.5625 2.144531 -0.597656 2.1875 -0.640625 C 2.195312 -0.648438 2.207031 -0.660156 2.21875 -0.671875 C 2.238281 -0.679688 2.257812 -0.6875 2.28125 -0.6875 Z M 2.28125 -0.6875 "/></g></g></g><g fill="#000000" fill-opacity="1"><g transform="translate(37.903972, 4.690464)"><g><path d="M 3.0625 -1.453125 C 3.0625 -1.234375 3.023438 -1.035156 2.953125 -0.859375 C 2.890625 -0.679688 2.789062 -0.523438 2.65625 -0.390625 C 2.53125 -0.253906 2.378906 -0.148438 2.203125 -0.078125 C 2.023438 -0.00390625 1.828125 0.03125 1.609375 0.03125 C 1.390625 0.03125 1.1875 -0.00390625 1 -0.078125 C 0.820312 -0.148438 0.664062 -0.253906 0.53125 -0.390625 C 0.40625 -0.523438 0.304688 -0.679688 0.234375 -0.859375 C 0.171875 -1.035156 0.140625 -1.234375 0.140625 -1.453125 C 0.140625 -1.660156 0.171875 -1.851562 0.234375 -2.03125 C 0.304688 -2.21875 0.40625 -2.375 0.53125 -2.5 C 0.664062 -2.632812 0.820312 -2.738281 1 -2.8125 C 1.1875 -2.882812 1.390625 -2.921875 1.609375 -2.921875 C 1.828125 -2.921875 2.023438 -2.882812 2.203125 -2.8125 C 2.378906 -2.738281 2.53125 -2.632812 2.65625 -2.5 C 2.789062 -2.375 2.890625 -2.21875 2.953125 -2.03125 C 3.023438 -1.851562 3.0625 -1.660156 3.0625 -1.453125 Z M 2.515625 -1.453125 C 2.515625 -1.609375 2.492188 -1.75 2.453125 -1.875 C 2.410156 -2 2.347656 -2.101562 2.265625 -2.1875 C 2.191406 -2.28125 2.097656 -2.347656 1.984375 -2.390625 C 1.867188 -2.441406 1.742188 -2.46875 1.609375 -2.46875 C 1.460938 -2.46875 1.332031 -2.441406 1.21875 -2.390625 C 1.101562 -2.347656 1.003906 -2.28125 0.921875 -2.1875 C 0.847656 -2.101562 0.789062 -2 0.75 -1.875 C 0.707031 -1.75 0.6875 -1.609375 0.6875 -1.453125 C 0.6875 -1.285156 0.707031 -1.140625 0.75 -1.015625 C 0.789062 -0.890625 0.847656 -0.78125 0.921875 -0.6875 C 1.003906 -0.601562 1.101562 -0.535156 1.21875 -0.484375 C 1.332031 -0.441406 1.460938 -0.421875 1.609375 -0.421875 C 1.742188 -0.421875 1.867188 -0.441406 1.984375 -0.484375 C 2.097656 -0.535156 2.191406 -0.601562 2.265625 -0.6875 C 2.347656 -0.78125 2.410156 -0.890625 2.453125 -1.015625 C 2.492188 -1.140625 2.515625 -1.285156 2.515625 -1.453125 Z M 2.515625 -1.453125 "/></g></g></g><g fill="#000000" fill-opacity="1"><g transform="translate(41.545994, 4.690464)"><g><path d="M 0.828125 -0.4375 L 1.984375 -0.4375 L 1.984375 0 L 0.296875 0 L 0.296875 -2.890625 L 0.828125 -2.890625 Z M 0.828125 -0.4375 "/></g></g></g><g fill="#000000" fill-opacity="1"><g transform="translate(44.056918, 4.690464)"><g><path d="M 3.0625 -1.453125 C 3.0625 -1.234375 3.023438 -1.035156 2.953125 -0.859375 C 2.890625 -0.679688 2.789062 -0.523438 2.65625 -0.390625 C 2.53125 -0.253906 2.378906 -0.148438 2.203125 -0.078125 C 2.023438 -0.00390625 1.828125 0.03125 1.609375 0.03125 C 1.390625 0.03125 1.1875 -0.00390625 1 -0.078125 C 0.820312 -0.148438 0.664062 -0.253906 0.53125 -0.390625 C 0.40625 -0.523438 0.304688 -0.679688 0.234375 -0.859375 C 0.171875 -1.035156 0.140625 -1.234375 0.140625 -1.453125 C 0.140625 -1.660156 0.171875 -1.851562 0.234375 -2.03125 C 0.304688 -2.21875 0.40625 -2.375 0.53125 -2.5 C 0.664062 -2.632812 0.820312 -2.738281 1 -2.8125 C 1.1875 -2.882812 1.390625 -2.921875 1.609375 -2.921875 C 1.828125 -2.921875 2.023438 -2.882812 2.203125 -2.8125 C 2.378906 -2.738281 2.53125 -2.632812 2.65625 -2.5 C 2.789062 -2.375 2.890625 -2.21875 2.953125 -2.03125 C 3.023438 -1.851562 3.0625 -1.660156 3.0625 -1.453125 Z M 2.515625 -1.453125 C 2.515625 -1.609375 2.492188 -1.75 2.453125 -1.875 C 2.410156 -2 2.347656 -2.101562 2.265625 -2.1875 C 2.191406 -2.28125 2.097656 -2.347656 1.984375 -2.390625 C 1.867188 -2.441406 1.742188 -2.46875 1.609375 -2.46875 C 1.460938 -2.46875 1.332031 -2.441406 1.21875 -2.390625 C 1.101562 -2.347656 1.003906 -2.28125 0.921875 -2.1875 C 0.847656 -2.101562 0.789062 -2 0.75 -1.875 C 0.707031 -1.75 0.6875 -1.609375 0.6875 -1.453125 C 0.6875 -1.285156 0.707031 -1.140625 0.75 -1.015625 C 0.789062 -0.890625 0.847656 -0.78125 0.921875 -0.6875 C 1.003906 -0.601562 1.101562 -0.535156 1.21875 -0.484375 C 1.332031 -0.441406 1.460938 -0.421875 1.609375 -0.421875 C 1.742188 -0.421875 1.867188 -0.441406 1.984375 -0.484375 C 2.097656 -0.535156 2.191406 -0.601562 2.265625 -0.6875 C 2.347656 -0.78125 2.410156 -0.890625 2.453125 -1.015625 C 2.492188 -1.140625 2.515625 -1.285156 2.515625 -1.453125 Z M 2.375 -3.578125 L 1.78125 -3.15625 C 1.769531 -3.144531 1.753906 -3.132812 1.734375 -3.125 C 1.722656 -3.113281 1.710938 -3.109375 1.703125 -3.109375 C 1.691406 -3.109375 1.675781 -3.101562 1.65625 -3.09375 C 1.644531 -3.09375 1.628906 -3.09375 1.609375 -3.09375 L 1.234375 -3.09375 L 1.625 -3.5 C 1.632812 -3.519531 1.644531 -3.535156 1.65625 -3.546875 C 1.675781 -3.554688 1.691406 -3.5625 1.703125 -3.5625 C 1.722656 -3.570312 1.738281 -3.578125 1.75 -3.578125 C 1.769531 -3.578125 1.796875 -3.578125 1.828125 -3.578125 Z M 2.375 -3.578125 "/></g></g></g><g fill="#000000" fill-opacity="1"><g transform="translate(47.69894, 4.690464)"><g><path d="M 1.625 -0.390625 C 1.738281 -0.390625 1.84375 -0.398438 1.9375 -0.421875 C 2.03125 -0.453125 2.113281 -0.484375 2.1875 -0.515625 L 2.1875 -1.046875 L 1.828125 -1.046875 C 1.796875 -1.046875 1.769531 -1.054688 1.75 -1.078125 C 1.726562 -1.097656 1.71875 -1.117188 1.71875 -1.140625 L 1.71875 -1.453125 L 2.6875 -1.453125 L 2.6875 -0.28125 C 2.613281 -0.226562 2.535156 -0.179688 2.453125 -0.140625 C 2.367188 -0.0976562 2.28125 -0.0625 2.1875 -0.03125 C 2.101562 -0.0078125 2.007812 0.00390625 1.90625 0.015625 C 1.800781 0.0234375 1.691406 0.03125 1.578125 0.03125 C 1.367188 0.03125 1.175781 -0.00390625 1 -0.078125 C 0.820312 -0.148438 0.664062 -0.25 0.53125 -0.375 C 0.40625 -0.507812 0.304688 -0.664062 0.234375 -0.84375 C 0.160156 -1.03125 0.125 -1.234375 0.125 -1.453125 C 0.125 -1.660156 0.160156 -1.851562 0.234375 -2.03125 C 0.304688 -2.21875 0.40625 -2.375 0.53125 -2.5 C 0.65625 -2.632812 0.8125 -2.738281 1 -2.8125 C 1.1875 -2.882812 1.394531 -2.921875 1.625 -2.921875 C 1.863281 -2.921875 2.066406 -2.882812 2.234375 -2.8125 C 2.410156 -2.75 2.5625 -2.660156 2.6875 -2.546875 L 2.53125 -2.296875 C 2.5 -2.253906 2.457031 -2.234375 2.40625 -2.234375 C 2.375 -2.234375 2.335938 -2.242188 2.296875 -2.265625 C 2.253906 -2.285156 2.210938 -2.304688 2.171875 -2.328125 C 2.128906 -2.359375 2.078125 -2.382812 2.015625 -2.40625 C 1.960938 -2.425781 1.898438 -2.441406 1.828125 -2.453125 C 1.765625 -2.460938 1.691406 -2.46875 1.609375 -2.46875 C 1.460938 -2.46875 1.332031 -2.441406 1.21875 -2.390625 C 1.101562 -2.347656 1.003906 -2.28125 0.921875 -2.1875 C 0.847656 -2.09375 0.785156 -1.984375 0.734375 -1.859375 C 0.691406 -1.734375 0.671875 -1.597656 0.671875 -1.453125 C 0.671875 -1.285156 0.691406 -1.132812 0.734375 -1 C 0.785156 -0.875 0.851562 -0.765625 0.9375 -0.671875 C 1.019531 -0.578125 1.117188 -0.503906 1.234375 -0.453125 C 1.359375 -0.410156 1.488281 -0.390625 1.625 -0.390625 Z M 1.625 -0.390625 "/></g></g></g><g fill="#000000" fill-opacity="1"><g transform="translate(51.034664, 4.690464)"><g><path d="M 0.890625 0 L 0.359375 0 L 0.359375 -2.890625 L 0.890625 -2.890625 Z M 0.890625 0 "/></g></g></g><g fill="#000000" fill-opacity="1"><g transform="translate(52.732798, 4.690464)"><g><path d="M 2.28125 -0.6875 C 2.3125 -0.6875 2.335938 -0.671875 2.359375 -0.640625 L 2.5625 -0.421875 C 2.445312 -0.273438 2.300781 -0.160156 2.125 -0.078125 C 1.957031 -0.00390625 1.753906 0.03125 1.515625 0.03125 C 1.304688 0.03125 1.113281 -0.00390625 0.9375 -0.078125 C 0.769531 -0.148438 0.625 -0.25 0.5 -0.375 C 0.375 -0.507812 0.28125 -0.664062 0.21875 -0.84375 C 0.15625 -1.03125 0.125 -1.234375 0.125 -1.453125 C 0.125 -1.660156 0.160156 -1.851562 0.234375 -2.03125 C 0.304688 -2.21875 0.40625 -2.375 0.53125 -2.5 C 0.664062 -2.632812 0.820312 -2.738281 1 -2.8125 C 1.1875 -2.882812 1.390625 -2.921875 1.609375 -2.921875 C 1.828125 -2.921875 2.015625 -2.882812 2.171875 -2.8125 C 2.328125 -2.75 2.460938 -2.660156 2.578125 -2.546875 L 2.40625 -2.296875 C 2.394531 -2.285156 2.378906 -2.269531 2.359375 -2.25 C 2.347656 -2.238281 2.328125 -2.234375 2.296875 -2.234375 C 2.265625 -2.234375 2.234375 -2.242188 2.203125 -2.265625 C 2.171875 -2.296875 2.128906 -2.320312 2.078125 -2.34375 C 2.023438 -2.375 1.960938 -2.398438 1.890625 -2.421875 C 1.816406 -2.453125 1.722656 -2.46875 1.609375 -2.46875 C 1.472656 -2.46875 1.347656 -2.441406 1.234375 -2.390625 C 1.117188 -2.347656 1.019531 -2.28125 0.9375 -2.1875 C 0.851562 -2.101562 0.785156 -2 0.734375 -1.875 C 0.691406 -1.75 0.671875 -1.609375 0.671875 -1.453125 C 0.671875 -1.285156 0.691406 -1.140625 0.734375 -1.015625 C 0.785156 -0.890625 0.847656 -0.78125 0.921875 -0.6875 C 1.003906 -0.601562 1.097656 -0.535156 1.203125 -0.484375 C 1.316406 -0.441406 1.429688 -0.421875 1.546875 -0.421875 C 1.617188 -0.421875 1.6875 -0.425781 1.75 -0.4375 C 1.8125 -0.445312 1.863281 -0.457031 1.90625 -0.46875 C 1.957031 -0.488281 2.003906 -0.507812 2.046875 -0.53125 C 2.097656 -0.5625 2.144531 -0.597656 2.1875 -0.640625 C 2.195312 -0.648438 2.207031 -0.660156 2.21875 -0.671875 C 2.238281 -0.679688 2.257812 -0.6875 2.28125 -0.6875 Z M 2.28125 -0.6875 "/></g></g></g><g fill="#000000" fill-opacity="1"><g transform="translate(55.858318, 4.690464)"><g><path d="M 2.828125 0 L 2.421875 0 C 2.367188 0 2.328125 -0.0078125 2.296875 -0.03125 C 2.273438 -0.0507812 2.253906 -0.0820312 2.234375 -0.125 L 2.015625 -0.71875 L 0.828125 -0.71875 L 0.609375 -0.125 C 0.597656 -0.09375 0.578125 -0.0625 0.546875 -0.03125 C 0.515625 -0.0078125 0.476562 0 0.4375 0 L 0.015625 0 L 1.140625 -2.890625 L 1.703125 -2.890625 Z M 0.96875 -1.09375 L 1.890625 -1.09375 L 1.53125 -2.046875 C 1.519531 -2.097656 1.503906 -2.148438 1.484375 -2.203125 C 1.460938 -2.265625 1.441406 -2.328125 1.421875 -2.390625 C 1.398438 -2.328125 1.378906 -2.265625 1.359375 -2.203125 C 1.347656 -2.140625 1.332031 -2.085938 1.3125 -2.046875 Z M 0.96875 -1.09375 "/></g></g></g></g></g></g><g clip-path="url(#d901106b7e)"><path fill="#35b729" d="M 41.566406 46.066406 L 43.734375 45.59375 L 44.058594 43.398438 L 42.152344 42.332031 L 40.585938 41.632812 L 40.539062 40.691406 L 42 39.859375 L 43.820312 38.59375 L 43.28125 36.441406 L 41.113281 36.183594 L 39.398438 36.136719 L 38.996094 35.285156 L 40.027344 33.957031 L 41.226562 32.089844 L 39.902344 30.308594 L 37.800781 30.902344 L 36.199219 31.515625 L 35.5 30.882812 L 35.945312 29.257812 L 36.339844 27.078125 L 34.4375 25.9375 L 32.71875 27.289062 L 31.472656 28.46875 L 30.589844 28.152344 L 30.378906 26.480469 L 29.90625 24.316406 L 27.710938 23.988281 L 26.644531 25.898438 L 25.941406 27.464844 L 25.003906 27.507812 L 24.167969 26.046875 L 22.902344 24.226562 L 20.753906 24.765625 L 20.496094 26.933594 L 20.449219 28.648438 L 19.597656 29.050781 L 18.269531 28.019531 L 16.402344 26.824219 L 14.621094 28.144531 L 15.214844 30.246094 L 15.828125 31.851562 L 15.195312 32.546875 L 13.570312 32.101562 L 11.390625 31.710938 L 10.25 33.613281 L 11.601562 35.328125 L 12.78125 36.574219 L 12.464844 37.460938 L 10.792969 37.671875 L 8.628906 38.144531 L 8.300781 40.335938 L 10.207031 41.402344 L 11.773438 42.105469 L 11.820312 43.042969 L 10.359375 43.878906 L 8.539062 45.144531 L 9.078125 47.296875 L 11.246094 47.550781 L 12.960938 47.597656 L 13.363281 48.449219 L 12.332031 49.78125 L 11.132812 51.644531 L 12.457031 53.425781 L 14.558594 52.832031 L 16.160156 52.222656 L 16.859375 52.851562 L 16.414062 54.476562 L 16.023438 56.660156 L 17.925781 57.800781 L 19.640625 56.445312 L 20.886719 55.265625 L 21.773438 55.582031 L 21.980469 57.253906 L 22.453125 59.421875 L 24.648438 59.746094 L 25.714844 57.839844 L 26.417969 56.273438 L 27.355469 56.226562 L 28.191406 57.6875 L 29.457031 59.507812 L 31.609375 58.972656 L 31.863281 56.800781 L 31.910156 55.085938 L 32.761719 54.683594 L 34.089844 55.714844 L 35.957031 56.914062 L 37.738281 55.59375 L 37.144531 53.488281 L 36.53125 51.886719 L 37.164062 51.1875 L 38.789062 51.632812 L 40.972656 52.027344 L 42.109375 50.125 L 40.757812 48.410156 L 39.578125 47.160156 L 39.894531 46.277344 Z M 26.179688 52.617188 C 20.253906 52.617188 15.433594 47.792969 15.433594 41.867188 C 15.433594 35.941406 20.253906 31.121094 26.179688 31.121094 C 32.105469 31.121094 36.929688 35.941406 36.929688 41.867188 C 36.929688 47.792969 32.105469 52.617188 26.179688 52.617188 Z M 26.179688 52.617188 " fill-opacity="1" fill-rule="nonzero"/></g><path fill="#35b729" d="M 26.179688 31.835938 C 20.648438 31.835938 16.148438 36.335938 16.148438 41.867188 C 16.148438 47.398438 20.648438 51.902344 26.179688 51.902344 C 31.710938 51.902344 36.210938 47.398438 36.210938 41.867188 C 36.210938 36.335938 31.710938 31.835938 26.179688 31.835938 Z M 26.179688 48.539062 C 22.5 48.539062 19.507812 45.546875 19.507812 41.867188 C 19.507812 38.1875 22.5 35.195312 26.179688 35.195312 C 29.859375 35.195312 32.851562 38.1875 32.851562 41.867188 C 32.851562 45.546875 29.859375 48.539062 26.179688 48.539062 Z M 26.179688 48.539062 " fill-opacity="1" fill-rule="nonzero"/></svg>