<svg xmlns="http://www.w3.org/2000/svg" xmlns:xlink="http://www.w3.org/1999/xlink" width="166" zoomAndPan="magnify" viewBox="0 0 124.5 82.499998" height="110" preserveAspectRatio="xMidYMid meet" version="1.0"><defs><clipPath id="ccc245eb5b"><path d="M 7.625 27.136719 L 116.296875 27.136719 L 116.296875 54.773438 L 7.625 54.773438 Z M 7.625 27.136719 " clip-rule="nonzero"/></clipPath><clipPath id="6d7737f581"><path d="M 7.625 31 L 14 31 L 14 51 L 7.625 51 Z M 7.625 31 " clip-rule="nonzero"/></clipPath><clipPath id="1277f554bf"><path d="M 110 31 L 116.296875 31 L 116.296875 51 L 110 51 Z M 110 31 " clip-rule="nonzero"/></clipPath></defs><g clip-path="url(#ccc245eb5b)"><path fill="#ff0000" d="M 7.625 27.136719 L 116.296875 27.136719 L 116.296875 54.773438 L 7.625 54.773438 Z M 7.625 27.136719 " fill-opacity="1" fill-rule="nonzero"/></g><g clip-path="url(#6d7737f581)"><path fill="#ffffff" d="M 7.625 50.753906 L 13.46875 50.753906 L 13.46875 50.015625 L 7.625 50.015625 Z M 7.625 46.082031 L 13.46875 46.082031 L 13.46875 45.34375 L 7.625 45.34375 Z M 7.625 41.242188 L 13.46875 41.242188 L 13.46875 40.503906 L 7.625 40.503906 Z M 7.625 36.488281 L 13.46875 36.488281 L 13.46875 35.75 L 7.625 35.75 Z M 7.625 31.8125 L 13.46875 31.8125 L 13.46875 31.074219 L 7.625 31.074219 Z M 7.625 31.8125 " fill-opacity="1" fill-rule="nonzero"/></g><g clip-path="url(#1277f554bf)"><path fill="#ffffff" d="M 110.535156 50.753906 L 116.296875 50.753906 L 116.296875 50.015625 L 110.535156 50.015625 Z M 110.535156 46.082031 L 116.296875 46.082031 L 116.296875 45.34375 L 110.535156 45.34375 Z M 110.535156 41.242188 L 116.296875 41.242188 L 116.296875 40.503906 L 110.535156 40.503906 Z M 110.535156 36.488281 L 116.296875 36.488281 L 116.296875 35.75 L 110.535156 35.75 Z M 110.535156 31.8125 L 116.296875 31.8125 L 116.296875 31.074219 L 110.535156 31.074219 Z M 110.535156 31.8125 " fill-opacity="1" fill-rule="nonzero"/></g><path fill="#ffffff" d="M 104.277344 50.753906 L 108.476562 31.074219 L 102.960938 31.074219 L 98.761719 50.753906 Z M 84.1875 43.046875 L 88.636719 34.847656 L 88.71875 34.847656 L 89.457031 43.046875 Z M 79.90625 50.753906 L 82.046875 46.902344 L 90.117188 46.902344 L 90.609375 50.753906 L 96.785156 50.753906 L 93.164062 31.074219 L 86.496094 31.074219 L 74.390625 50.753906 Z M 53.070312 50.753906 L 58.007812 50.753906 L 61.21875 35.667969 L 61.300781 35.667969 L 64.757812 50.753906 L 72.332031 50.753906 L 76.53125 31.074219 L 71.59375 31.074219 L 68.464844 45.671875 L 68.464844 45.753906 L 64.925781 31.074219 L 57.265625 31.074219 Z M 50.023438 50.753906 L 50.847656 46.902344 L 41.214844 46.902344 L 42.117188 42.71875 L 50.929688 42.71875 L 51.75 38.863281 L 42.941406 38.863281 L 43.847656 34.765625 L 53.398438 34.765625 L 54.222656 30.910156 L 39.15625 30.910156 L 34.957031 50.589844 L 50.023438 50.589844 Z M 34.132812 36.816406 C 35.449219 32.058594 31.582031 30.582031 27.546875 30.582031 C 23.429688 30.582031 18.984375 31.894531 17.832031 36.570312 C 17.421875 38.699219 17.996094 40.503906 19.808594 41.40625 C 23.675781 43.292969 27.875 42.71875 27.300781 45.425781 C 27.054688 46.738281 25.242188 47.394531 24.007812 47.394531 C 22.03125 47.394531 20.878906 46.410156 21.289062 44.523438 L 15.773438 44.523438 C 14.703125 49.851562 18.492188 51.246094 23.101562 51.246094 C 27.710938 51.246094 32.238281 49.277344 33.0625 45.097656 C 34.214844 39.765625 29.441406 39.4375 26.3125 38.617188 C 24.914062 38.207031 23.265625 37.796875 23.59375 36.324219 C 23.84375 35.339844 25.078125 34.519531 26.3125 34.519531 C 27.21875 34.519531 27.875 34.765625 28.289062 35.175781 C 28.699219 35.585938 28.78125 36.160156 28.617188 36.898438 L 34.132812 36.898438 Z M 34.132812 36.816406 " fill-opacity="1" fill-rule="evenodd"/></svg>