<svg xmlns="http://www.w3.org/2000/svg" xmlns:xlink="http://www.w3.org/1999/xlink" width="40" zoomAndPan="magnify" viewBox="0 0 30 30.000001" height="40" preserveAspectRatio="xMidYMid meet" version="1.0"><path fill="#39b54a" d="M 13.941406 22.195312 C 13.28125 20.683594 12.300781 17.742188 13.265625 14.601562 C 14.847656 9.445312 21.050781 5.75 28.515625 6.230469 C 29.507812 12.519531 27.0625 18.410156 22.460938 21.035156 C 19.359375 22.808594 16.148438 22.601562 14.625 22.390625 C 16.183594 21.214844 17.933594 19.707031 19.679688 17.800781 C 22.378906 14.851562 24.179688 11.929688 25.371094 9.59375 C 23.65625 11.96875 21.601562 14.535156 19.140625 17.15625 C 17.367188 19.046875 15.617188 20.71875 13.941406 22.195312 Z M 13.941406 22.195312 " fill-opacity="1" fill-rule="nonzero"/><path fill="#39b54a" d="M 11.953125 22.359375 C 10.789062 22.710938 8.546875 23.171875 6.324219 22.203125 C 2.675781 20.617188 0.492188 15.804688 1.480469 10.429688 C 6.179688 10.25 10.292969 12.523438 11.828125 16.085938 C 12.863281 18.484375 12.4375 20.796875 12.152344 21.882812 C 11.425781 20.652344 10.46875 19.253906 9.214844 17.824219 C 7.28125 15.617188 5.292969 14.0625 3.679688 13 C 5.277344 14.441406 6.984375 16.152344 8.699219 18.160156 C 9.933594 19.605469 11.011719 21.019531 11.953125 22.359375 Z M 11.953125 22.359375 " fill-opacity="1" fill-rule="nonzero"/></svg>