<svg xmlns="http://www.w3.org/2000/svg" xmlns:xlink="http://www.w3.org/1999/xlink" width="341" zoomAndPan="magnify" viewBox="0 0 255.75 73.499998" height="98" preserveAspectRatio="xMidYMid meet" version="1.0"><defs><g/><clipPath id="2dcf89a35d"><path d="M 79 4 L 94 4 L 94 18.859375 L 79 18.859375 Z M 79 4 " clip-rule="nonzero"/></clipPath><clipPath id="7158ce8bdf"><path d="M 69 7 L 80 7 L 80 18.859375 L 69 18.859375 Z M 69 7 " clip-rule="nonzero"/></clipPath></defs><g fill="#ffffff" fill-opacity="1"><g transform="translate(0.739869, 48.900459)"><g><path d="M 3 0 L 3 -38.90625 L 30.375 -38.90625 L 30.375 -31.46875 L 12.015625 -31.46875 L 12.015625 -23.21875 L 28.1875 -23.21875 L 28.1875 -16.609375 L 12.015625 -16.609375 L 12.015625 -7.484375 L 30.921875 -7.484375 L 30.921875 0 Z M 3 0 "/></g></g></g><g fill="#ffffff" fill-opacity="1"><g transform="translate(31.665474, 48.900459)"><g><path d="M 16.34375 1.09375 C 13.351562 1.09375 10.71875 0.457031 8.4375 -0.8125 C 6.164062 -2.09375 4.398438 -3.859375 3.140625 -6.109375 C 1.878906 -8.367188 1.25 -10.992188 1.25 -13.984375 C 1.25 -16.972656 1.859375 -19.597656 3.078125 -21.859375 C 4.304688 -24.117188 6.019531 -25.882812 8.21875 -27.15625 C 10.425781 -28.425781 12.96875 -29.0625 15.84375 -29.0625 C 18.207031 -29.0625 20.347656 -28.625 22.265625 -27.75 C 24.179688 -26.882812 25.773438 -25.664062 27.046875 -24.09375 C 28.316406 -22.53125 29.15625 -20.707031 29.5625 -18.625 L 21.96875 -16.671875 C 21.675781 -18.484375 20.972656 -19.875 19.859375 -20.84375 C 18.742188 -21.8125 17.476562 -22.296875 16.0625 -22.296875 C 14.164062 -22.296875 12.609375 -21.53125 11.390625 -20 C 10.171875 -18.46875 9.5625 -16.460938 9.5625 -13.984375 C 9.59375 -11.503906 10.273438 -9.5 11.609375 -7.96875 C 12.941406 -6.445312 14.609375 -5.6875 16.609375 -5.6875 C 18.359375 -5.6875 19.859375 -6.285156 21.109375 -7.484375 C 22.367188 -8.679688 23.109375 -10.226562 23.328125 -12.125 L 31.09375 -11.03125 C 30.832031 -8.632812 30.035156 -6.523438 28.703125 -4.703125 C 27.378906 -2.878906 25.648438 -1.457031 23.515625 -0.4375 C 21.390625 0.582031 19 1.09375 16.34375 1.09375 Z M 16.34375 1.09375 "/></g></g></g><g fill="#ffffff" fill-opacity="1"><g transform="translate(98.316232, 48.900459)"><g><path d="M 20.484375 -28.796875 C 23.367188 -28.796875 25.628906 -27.957031 27.265625 -26.28125 C 28.898438 -24.601562 29.71875 -22.269531 29.71875 -19.28125 L 29.71875 0 L 21.359375 0 L 21.359375 -16.71875 C 21.359375 -18.320312 20.9375 -19.578125 20.09375 -20.484375 C 19.257812 -21.398438 18.117188 -21.859375 16.671875 -21.859375 C 14.878906 -21.859375 13.410156 -21.273438 12.265625 -20.109375 C 11.117188 -18.941406 10.546875 -17.394531 10.546875 -15.46875 L 10.546875 0 L 2.1875 0 L 2.1875 -27.96875 L 9.234375 -27.96875 L 10.484375 -22.890625 L 10.546875 -22.890625 C 11.566406 -24.785156 12.921875 -26.242188 14.609375 -27.265625 C 16.304688 -28.285156 18.265625 -28.796875 20.484375 -28.796875 Z M 20.484375 -28.796875 "/></g></g></g><g fill="#ffffff" fill-opacity="1"><g transform="translate(128.859357, 48.900459)"><g><path d="M 17.984375 1.09375 C 14.703125 1.09375 11.800781 0.445312 9.28125 -0.84375 C 6.769531 -2.132812 4.800781 -3.925781 3.375 -6.21875 C 1.957031 -8.519531 1.25 -11.164062 1.25 -14.15625 C 1.25 -17.101562 1.878906 -19.695312 3.140625 -21.9375 C 4.398438 -24.175781 6.164062 -25.921875 8.4375 -27.171875 C 10.71875 -28.429688 13.351562 -29.0625 16.34375 -29.0625 C 19.25 -29.0625 21.785156 -28.460938 23.953125 -27.265625 C 26.128906 -26.066406 27.828125 -24.398438 29.046875 -22.265625 C 30.265625 -20.128906 30.875 -17.660156 30.875 -14.859375 C 30.875 -14.316406 30.835938 -13.757812 30.765625 -13.1875 C 30.691406 -12.625 30.597656 -12.125 30.484375 -11.6875 L 9.828125 -11.6875 C 10.085938 -9.6875 10.988281 -8.078125 12.53125 -6.859375 C 14.082031 -5.640625 16.003906 -5.03125 18.296875 -5.03125 C 20.046875 -5.03125 21.6875 -5.382812 23.21875 -6.09375 C 24.75 -6.800781 25.914062 -7.722656 26.71875 -8.859375 L 31.46875 -5.1875 C 30.34375 -3.332031 28.566406 -1.820312 26.140625 -0.65625 C 23.722656 0.507812 21.003906 1.09375 17.984375 1.09375 Z M 9.78125 -16.5 L 22.40625 -16.5 C 22.257812 -18.570312 21.640625 -20.191406 20.546875 -21.359375 C 19.453125 -22.523438 18.050781 -23.109375 16.34375 -23.109375 C 14.59375 -23.109375 13.125 -22.5 11.9375 -21.28125 C 10.75 -20.0625 10.03125 -18.46875 9.78125 -16.5 Z M 9.78125 -16.5 "/></g></g></g><g fill="#ffffff" fill-opacity="1"><g transform="translate(160.16744, 48.900459)"><g><path d="M 16.34375 1.09375 C 13.351562 1.09375 10.71875 0.457031 8.4375 -0.8125 C 6.164062 -2.09375 4.398438 -3.859375 3.140625 -6.109375 C 1.878906 -8.367188 1.25 -10.992188 1.25 -13.984375 C 1.25 -16.972656 1.859375 -19.597656 3.078125 -21.859375 C 4.304688 -24.117188 6.019531 -25.882812 8.21875 -27.15625 C 10.425781 -28.425781 12.96875 -29.0625 15.84375 -29.0625 C 18.207031 -29.0625 20.347656 -28.625 22.265625 -27.75 C 24.179688 -26.882812 25.773438 -25.664062 27.046875 -24.09375 C 28.316406 -22.53125 29.15625 -20.707031 29.5625 -18.625 L 21.96875 -16.671875 C 21.675781 -18.484375 20.972656 -19.875 19.859375 -20.84375 C 18.742188 -21.8125 17.476562 -22.296875 16.0625 -22.296875 C 14.164062 -22.296875 12.609375 -21.53125 11.390625 -20 C 10.171875 -18.46875 9.5625 -16.460938 9.5625 -13.984375 C 9.59375 -11.503906 10.273438 -9.5 11.609375 -7.96875 C 12.941406 -6.445312 14.609375 -5.6875 16.609375 -5.6875 C 18.359375 -5.6875 19.859375 -6.285156 21.109375 -7.484375 C 22.367188 -8.679688 23.109375 -10.226562 23.328125 -12.125 L 31.09375 -11.03125 C 30.832031 -8.632812 30.035156 -6.523438 28.703125 -4.703125 C 27.378906 -2.878906 25.648438 -1.457031 23.515625 -0.4375 C 21.390625 0.582031 19 1.09375 16.34375 1.09375 Z M 16.34375 1.09375 "/></g></g></g><g fill="#ffffff" fill-opacity="1"><g transform="translate(190.983764, 48.900459)"><g><path d="M 16.390625 1.09375 C 13.035156 1.09375 10.382812 0.164062 8.4375 -1.6875 C 6.488281 -3.550781 5.515625 -6.066406 5.515625 -9.234375 L 5.515625 -21.640625 L 0.265625 -21.640625 L 0.265625 -27.96875 L 5.515625 -27.96875 L 5.515625 -35.6875 L 13.875 -37.484375 L 13.875 -27.96875 L 24.96875 -27.96875 L 24.96875 -21.640625 L 13.875 -21.640625 L 13.875 -10.546875 C 13.875 -9.015625 14.289062 -7.8125 15.125 -6.9375 C 15.96875 -6.0625 17.007812 -5.625 18.25 -5.625 C 20.726562 -5.625 22.625 -6.828125 23.9375 -9.234375 L 26.453125 -3.984375 C 25.460938 -2.421875 24.046875 -1.179688 22.203125 -0.265625 C 20.367188 0.640625 18.429688 1.09375 16.390625 1.09375 Z M 16.390625 1.09375 "/></g></g></g><g fill="#ffffff" fill-opacity="1"><g transform="translate(216.882551, 48.900459)"><g><path d="M 10.8125 0.8125 C 7.90625 0.8125 5.507812 0.0859375 3.625 -1.359375 C 1.75 -2.816406 0.8125 -4.75 0.8125 -7.15625 C 0.8125 -9.5625 1.847656 -11.582031 3.921875 -13.21875 C 6.003906 -14.863281 9.140625 -15.90625 13.328125 -16.34375 L 18.734375 -17 C 19.390625 -17.070312 19.914062 -17.28125 20.3125 -17.625 C 20.71875 -17.96875 20.921875 -18.429688 20.921875 -19.015625 C 20.921875 -20.210938 20.445312 -21.175781 19.5 -21.90625 C 18.5625 -22.632812 17.34375 -23 15.84375 -23 C 14.164062 -23 12.78125 -22.476562 11.6875 -21.4375 C 10.59375 -20.40625 9.972656 -19.195312 9.828125 -17.8125 L 1.6875 -19.0625 C 1.875 -21 2.554688 -22.722656 3.734375 -24.234375 C 4.921875 -25.742188 6.535156 -26.925781 8.578125 -27.78125 C 10.617188 -28.632812 12.96875 -29.0625 15.625 -29.0625 C 19.738281 -29.0625 23.015625 -28.050781 25.453125 -26.03125 C 27.898438 -24.007812 29.125 -21.253906 29.125 -17.765625 L 29.125 -6.9375 C 29.125 -5.59375 29.597656 -4.921875 30.546875 -4.921875 C 31.347656 -4.921875 32.078125 -5.335938 32.734375 -6.171875 L 34.703125 -1.75 C 33.859375 -0.90625 32.769531 -0.269531 31.4375 0.15625 C 30.113281 0.59375 28.8125 0.8125 27.53125 0.8125 C 25.863281 0.8125 24.425781 0.359375 23.21875 -0.546875 C 22.019531 -1.453125 21.328125 -2.546875 21.140625 -3.828125 L 21.03125 -4.8125 L 20.984375 -4.8125 C 20.066406 -3.132812 18.734375 -1.773438 16.984375 -0.734375 C 15.242188 0.296875 13.1875 0.8125 10.8125 0.8125 Z M 13.984375 -4.921875 C 15.953125 -4.921875 17.570312 -5.53125 18.84375 -6.75 C 20.125 -7.96875 20.765625 -9.523438 20.765625 -11.421875 L 20.765625 -12.5625 L 15.40625 -11.96875 C 13.070312 -11.707031 11.445312 -11.226562 10.53125 -10.53125 C 9.625 -9.84375 9.171875 -9.046875 9.171875 -8.140625 C 9.171875 -7.191406 9.625 -6.414062 10.53125 -5.8125 C 11.445312 -5.21875 12.597656 -4.921875 13.984375 -4.921875 Z M 13.984375 -4.921875 "/></g></g></g><g fill="#f28123" fill-opacity="1"><g transform="translate(64.488455, 48.900459)"><g><path d="M 16.78125 1.09375 C 13.675781 1.09375 10.957031 0.472656 8.625 -0.765625 C 6.300781 -2.003906 4.488281 -3.757812 3.1875 -6.03125 C 1.894531 -8.3125 1.25 -10.960938 1.25 -13.984375 C 1.25 -17.046875 1.894531 -19.707031 3.1875 -21.96875 C 4.488281 -24.226562 6.300781 -25.972656 8.625 -27.203125 C 10.957031 -28.441406 13.675781 -29.0625 16.78125 -29.0625 C 19.90625 -29.0625 22.632812 -28.441406 24.96875 -27.203125 C 27.300781 -25.972656 29.113281 -24.226562 30.40625 -21.96875 C 31.695312 -19.707031 32.34375 -17.046875 32.34375 -13.984375 C 32.34375 -10.960938 31.695312 -8.3125 30.40625 -6.03125 C 29.113281 -3.757812 27.300781 -2.003906 24.96875 -0.765625 C 22.632812 0.472656 19.90625 1.09375 16.78125 1.09375 Z M 16.78125 -5.84375 C 19.03125 -5.84375 20.8125 -6.570312 22.125 -8.03125 C 23.4375 -9.488281 24.09375 -11.472656 24.09375 -13.984375 C 24.09375 -16.503906 23.4375 -18.488281 22.125 -19.9375 C 20.8125 -21.394531 19.03125 -22.125 16.78125 -22.125 C 14.550781 -22.125 12.769531 -21.394531 11.4375 -19.9375 C 10.113281 -18.488281 9.453125 -16.503906 9.453125 -13.984375 C 9.453125 -11.472656 10.113281 -9.488281 11.4375 -8.03125 C 12.769531 -6.570312 14.550781 -5.84375 16.78125 -5.84375 Z M 16.78125 -5.84375 "/></g></g></g><g clip-path="url(#2dcf89a35d)"><path fill="#39b54a" d="M 80.535156 18.015625 C 79.953125 16.703125 79.082031 14.152344 79.9375 11.425781 C 81.335938 6.957031 86.824219 3.75 93.429688 4.167969 C 94.304688 9.621094 92.144531 14.730469 88.070312 17.007812 C 85.328125 18.542969 82.484375 18.367188 81.140625 18.183594 C 82.519531 17.164062 84.066406 15.855469 85.609375 14.199219 C 87.996094 11.644531 89.589844 9.109375 90.644531 7.085938 C 89.128906 9.144531 87.308594 11.367188 85.136719 13.640625 C 83.566406 15.28125 82.015625 16.734375 80.535156 18.015625 Z M 80.535156 18.015625 " fill-opacity="1" fill-rule="nonzero"/></g><g clip-path="url(#7158ce8bdf)"><path fill="#39b54a" d="M 78.773438 18.15625 C 77.742188 18.460938 75.761719 18.859375 73.792969 18.019531 C 70.566406 16.644531 68.636719 12.46875 69.507812 7.808594 C 73.667969 7.652344 77.304688 9.625 78.664062 12.714844 C 79.578125 14.792969 79.203125 16.800781 78.953125 17.742188 C 78.308594 16.675781 77.460938 15.464844 76.351562 14.222656 C 74.644531 12.308594 72.882812 10.960938 71.457031 10.035156 C 72.867188 11.289062 74.378906 12.773438 75.894531 14.511719 C 76.988281 15.769531 77.945312 16.996094 78.773438 18.15625 Z M 78.773438 18.15625 " fill-opacity="1" fill-rule="nonzero"/></g></svg>