<svg xmlns="http://www.w3.org/2000/svg" xmlns:xlink="http://www.w3.org/1999/xlink" width="341" zoomAndPan="magnify" viewBox="0 0 255.75 73.499998" height="98" preserveAspectRatio="xMidYMid meet" version="1.0"><defs><g/><clipPath id="c125d38855"><path d="M 79 4 L 94 4 L 94 18.898438 L 79 18.898438 Z M 79 4 " clip-rule="nonzero"/></clipPath><clipPath id="fc59489302"><path d="M 69 7 L 80 7 L 80 18.898438 L 69 18.898438 Z M 69 7 " clip-rule="nonzero"/></clipPath></defs><g fill="#ffffff" fill-opacity="1"><g transform="translate(0.739869, 50.10649)"><g><path d="M 3.015625 0 L 3.015625 -39.140625 L 30.5625 -39.140625 L 30.5625 -31.65625 L 12.09375 -31.65625 L 12.09375 -23.359375 L 28.359375 -23.359375 L 28.359375 -16.703125 L 12.09375 -16.703125 L 12.09375 -7.53125 L 31.109375 -7.53125 L 31.109375 0 Z M 3.015625 0 "/></g></g></g><g fill="#ffffff" fill-opacity="1"><g transform="translate(31.847265, 50.10649)"><g><path d="M 16.4375 1.09375 C 13.425781 1.09375 10.773438 0.453125 8.484375 -0.828125 C 6.203125 -2.109375 4.425781 -3.882812 3.15625 -6.15625 C 1.894531 -8.425781 1.265625 -11.066406 1.265625 -14.078125 C 1.265625 -17.078125 1.878906 -19.710938 3.109375 -21.984375 C 4.335938 -24.253906 6.054688 -26.03125 8.265625 -27.3125 C 10.484375 -28.601562 13.039062 -29.25 15.9375 -29.25 C 18.320312 -29.25 20.472656 -28.804688 22.390625 -27.921875 C 24.316406 -27.046875 25.921875 -25.816406 27.203125 -24.234375 C 28.492188 -22.660156 29.335938 -20.832031 29.734375 -18.75 L 22.09375 -16.765625 C 21.800781 -18.597656 21.09375 -20 19.96875 -20.96875 C 18.851562 -21.9375 17.582031 -22.421875 16.15625 -22.421875 C 14.25 -22.421875 12.679688 -21.648438 11.453125 -20.109375 C 10.234375 -18.578125 9.625 -16.566406 9.625 -14.078125 C 9.65625 -11.578125 10.335938 -9.554688 11.671875 -8.015625 C 13.015625 -6.484375 14.691406 -5.71875 16.703125 -5.71875 C 18.460938 -5.71875 19.972656 -6.320312 21.234375 -7.53125 C 22.503906 -8.738281 23.25 -10.296875 23.46875 -12.203125 L 31.28125 -11.109375 C 31.019531 -8.679688 30.21875 -6.550781 28.875 -4.71875 C 27.539062 -2.894531 25.800781 -1.46875 23.65625 -0.4375 C 21.519531 0.582031 19.113281 1.09375 16.4375 1.09375 Z M 16.4375 1.09375 "/></g></g></g><g fill="#ffffff" fill-opacity="1"><g transform="translate(98.678093, 50.10649)"><g><path d="M 20.609375 -28.96875 C 23.503906 -28.96875 25.773438 -28.125 27.421875 -26.4375 C 29.078125 -24.75 29.90625 -22.40625 29.90625 -19.40625 L 29.90625 0 L 21.5 0 L 21.5 -16.828125 C 21.5 -18.429688 21.078125 -19.691406 20.234375 -20.609375 C 19.390625 -21.523438 18.234375 -21.984375 16.765625 -21.984375 C 14.972656 -21.984375 13.5 -21.394531 12.34375 -20.21875 C 11.1875 -19.050781 10.609375 -17.5 10.609375 -15.5625 L 10.609375 0 L 2.203125 0 L 2.203125 -28.140625 L 9.296875 -28.140625 L 10.546875 -23.03125 L 10.609375 -23.03125 C 11.628906 -24.9375 12.992188 -26.398438 14.703125 -27.421875 C 16.410156 -28.453125 18.378906 -28.96875 20.609375 -28.96875 Z M 20.609375 -28.96875 "/></g></g></g><g fill="#ffffff" fill-opacity="1"><g transform="translate(129.400763, 50.10649)"><g><path d="M 18.078125 1.09375 C 14.785156 1.09375 11.875 0.445312 9.34375 -0.84375 C 6.8125 -2.144531 4.832031 -3.953125 3.40625 -6.265625 C 1.976562 -8.578125 1.265625 -11.234375 1.265625 -14.234375 C 1.265625 -17.203125 1.894531 -19.8125 3.15625 -22.0625 C 4.425781 -24.320312 6.203125 -26.082031 8.484375 -27.34375 C 10.773438 -28.613281 13.425781 -29.25 16.4375 -29.25 C 19.363281 -29.25 21.914062 -28.640625 24.09375 -27.421875 C 26.28125 -26.210938 27.988281 -24.535156 29.21875 -22.390625 C 30.445312 -20.253906 31.0625 -17.773438 31.0625 -14.953125 C 31.0625 -14.398438 31.023438 -13.835938 30.953125 -13.265625 C 30.878906 -12.703125 30.785156 -12.203125 30.671875 -11.765625 L 9.890625 -11.765625 C 10.148438 -9.742188 11.054688 -8.117188 12.609375 -6.890625 C 14.171875 -5.671875 16.109375 -5.0625 18.421875 -5.0625 C 20.171875 -5.0625 21.816406 -5.414062 23.359375 -6.125 C 24.898438 -6.84375 26.070312 -7.769531 26.875 -8.90625 L 31.65625 -5.21875 C 30.519531 -3.351562 28.734375 -1.832031 26.296875 -0.65625 C 23.859375 0.507812 21.117188 1.09375 18.078125 1.09375 Z M 9.84375 -16.59375 L 22.53125 -16.59375 C 22.382812 -18.6875 21.757812 -20.316406 20.65625 -21.484375 C 19.5625 -22.660156 18.15625 -23.25 16.4375 -23.25 C 14.675781 -23.25 13.195312 -22.632812 12 -21.40625 C 10.8125 -20.175781 10.09375 -18.570312 9.84375 -16.59375 Z M 9.84375 -16.59375 "/></g></g></g><g fill="#ffffff" fill-opacity="1"><g transform="translate(160.892872, 50.10649)"><g><path d="M 16.4375 1.09375 C 13.425781 1.09375 10.773438 0.453125 8.484375 -0.828125 C 6.203125 -2.109375 4.425781 -3.882812 3.15625 -6.15625 C 1.894531 -8.425781 1.265625 -11.066406 1.265625 -14.078125 C 1.265625 -17.078125 1.878906 -19.710938 3.109375 -21.984375 C 4.335938 -24.253906 6.054688 -26.03125 8.265625 -27.3125 C 10.484375 -28.601562 13.039062 -29.25 15.9375 -29.25 C 18.320312 -29.25 20.472656 -28.804688 22.390625 -27.921875 C 24.316406 -27.046875 25.921875 -25.816406 27.203125 -24.234375 C 28.492188 -22.660156 29.335938 -20.832031 29.734375 -18.75 L 22.09375 -16.765625 C 21.800781 -18.597656 21.09375 -20 19.96875 -20.96875 C 18.851562 -21.9375 17.582031 -22.421875 16.15625 -22.421875 C 14.25 -22.421875 12.679688 -21.648438 11.453125 -20.109375 C 10.234375 -18.578125 9.625 -16.566406 9.625 -14.078125 C 9.65625 -11.578125 10.335938 -9.554688 11.671875 -8.015625 C 13.015625 -6.484375 14.691406 -5.71875 16.703125 -5.71875 C 18.460938 -5.71875 19.972656 -6.320312 21.234375 -7.53125 C 22.503906 -8.738281 23.25 -10.296875 23.46875 -12.203125 L 31.28125 -11.109375 C 31.019531 -8.679688 30.21875 -6.550781 28.875 -4.71875 C 27.539062 -2.894531 25.800781 -1.46875 23.65625 -0.4375 C 21.519531 0.582031 19.113281 1.09375 16.4375 1.09375 Z M 16.4375 1.09375 "/></g></g></g><g fill="#ffffff" fill-opacity="1"><g transform="translate(191.890344, 50.10649)"><g><path d="M 16.484375 1.09375 C 13.117188 1.09375 10.453125 0.160156 8.484375 -1.703125 C 6.523438 -3.566406 5.546875 -6.097656 5.546875 -9.296875 L 5.546875 -21.765625 L 0.28125 -21.765625 L 0.28125 -28.140625 L 5.546875 -28.140625 L 5.546875 -35.890625 L 13.96875 -37.703125 L 13.96875 -28.140625 L 25.125 -28.140625 L 25.125 -21.765625 L 13.96875 -21.765625 L 13.96875 -10.609375 C 13.96875 -9.066406 14.382812 -7.851562 15.21875 -6.96875 C 16.0625 -6.09375 17.109375 -5.65625 18.359375 -5.65625 C 20.847656 -5.65625 22.753906 -6.867188 24.078125 -9.296875 L 26.609375 -4.015625 C 25.617188 -2.441406 24.195312 -1.195312 22.34375 -0.28125 C 20.488281 0.632812 18.535156 1.09375 16.484375 1.09375 Z M 16.484375 1.09375 "/></g></g></g><g fill="#ffffff" fill-opacity="1"><g transform="translate(217.941383, 50.10649)"><g><path d="M 10.890625 0.828125 C 7.953125 0.828125 5.539062 0.09375 3.65625 -1.375 C 1.769531 -2.84375 0.828125 -4.785156 0.828125 -7.203125 C 0.828125 -9.617188 1.867188 -11.648438 3.953125 -13.296875 C 6.046875 -14.953125 9.195312 -16 13.40625 -16.4375 L 18.859375 -17.09375 C 19.515625 -17.164062 20.039062 -17.375 20.4375 -17.71875 C 20.84375 -18.070312 21.046875 -18.539062 21.046875 -19.125 C 21.046875 -20.332031 20.566406 -21.300781 19.609375 -22.03125 C 18.660156 -22.769531 17.4375 -23.140625 15.9375 -23.140625 C 14.25 -23.140625 12.851562 -22.617188 11.75 -21.578125 C 10.65625 -20.535156 10.035156 -19.316406 9.890625 -17.921875 L 1.703125 -19.1875 C 1.890625 -21.125 2.578125 -22.851562 3.765625 -24.375 C 4.953125 -25.894531 6.570312 -27.085938 8.625 -27.953125 C 10.675781 -28.816406 13.039062 -29.25 15.71875 -29.25 C 19.863281 -29.25 23.160156 -28.226562 25.609375 -26.1875 C 28.066406 -24.15625 29.296875 -21.378906 29.296875 -17.859375 L 29.296875 -6.984375 C 29.296875 -5.628906 29.773438 -4.953125 30.734375 -4.953125 C 31.535156 -4.953125 32.265625 -5.375 32.921875 -6.21875 L 34.90625 -1.765625 C 34.0625 -0.921875 32.96875 -0.28125 31.625 0.15625 C 30.289062 0.601562 28.984375 0.828125 27.703125 0.828125 C 26.015625 0.828125 24.566406 0.367188 23.359375 -0.546875 C 22.148438 -1.460938 21.453125 -2.5625 21.265625 -3.84375 L 21.15625 -4.84375 L 21.109375 -4.84375 C 20.191406 -3.15625 18.851562 -1.785156 17.09375 -0.734375 C 15.332031 0.304688 13.265625 0.828125 10.890625 0.828125 Z M 14.078125 -4.953125 C 16.054688 -4.953125 17.6875 -5.5625 18.96875 -6.78125 C 20.25 -8.007812 20.890625 -9.578125 20.890625 -11.484375 L 20.890625 -12.640625 L 15.5 -12.03125 C 13.15625 -11.78125 11.523438 -11.304688 10.609375 -10.609375 C 9.691406 -9.910156 9.234375 -9.101562 9.234375 -8.1875 C 9.234375 -7.238281 9.691406 -6.460938 10.609375 -5.859375 C 11.523438 -5.253906 12.679688 -4.953125 14.078125 -4.953125 Z M 14.078125 -4.953125 "/></g></g></g><g fill="#fc7217" fill-opacity="1"><g transform="translate(64.655205, 50.10649)"><g><path d="M 16.875 1.09375 C 13.757812 1.09375 11.03125 0.472656 8.6875 -0.765625 C 6.34375 -2.015625 4.519531 -3.785156 3.21875 -6.078125 C 1.914062 -8.367188 1.265625 -11.035156 1.265625 -14.078125 C 1.265625 -17.148438 1.914062 -19.820312 3.21875 -22.09375 C 4.519531 -24.363281 6.34375 -26.125 8.6875 -27.375 C 11.03125 -28.625 13.757812 -29.25 16.875 -29.25 C 20.03125 -29.25 22.78125 -28.625 25.125 -27.375 C 27.46875 -26.125 29.289062 -24.363281 30.59375 -22.09375 C 31.894531 -19.820312 32.546875 -17.148438 32.546875 -14.078125 C 32.546875 -11.035156 31.894531 -8.367188 30.59375 -6.078125 C 29.289062 -3.785156 27.46875 -2.015625 25.125 -0.765625 C 22.78125 0.472656 20.03125 1.09375 16.875 1.09375 Z M 16.875 -5.875 C 19.144531 -5.875 20.9375 -6.609375 22.25 -8.078125 C 23.570312 -9.546875 24.234375 -11.546875 24.234375 -14.078125 C 24.234375 -16.597656 23.570312 -18.59375 22.25 -20.0625 C 20.9375 -21.53125 19.144531 -22.265625 16.875 -22.265625 C 14.632812 -22.265625 12.847656 -21.53125 11.515625 -20.0625 C 10.179688 -18.59375 9.515625 -16.597656 9.515625 -14.078125 C 9.515625 -11.546875 10.179688 -9.546875 11.515625 -8.078125 C 12.847656 -6.609375 14.632812 -5.875 16.875 -5.875 Z M 16.875 -5.875 "/></g></g></g><g clip-path="url(#c125d38855)"><path fill="#39b54a" d="M 80.59375 18.046875 C 80.015625 16.722656 79.15625 14.148438 80 11.398438 C 81.386719 6.890625 86.816406 3.65625 93.347656 4.078125 C 94.21875 9.578125 92.078125 14.730469 88.050781 17.03125 C 85.335938 18.582031 82.523438 18.398438 81.191406 18.214844 C 82.554688 17.1875 84.085938 15.867188 85.617188 14.199219 C 87.976562 11.621094 89.554688 9.0625 90.597656 7.019531 C 89.097656 9.097656 87.296875 11.34375 85.144531 13.636719 C 83.59375 15.289062 82.058594 16.753906 80.59375 18.046875 Z M 80.59375 18.046875 " fill-opacity="1" fill-rule="nonzero"/></g><g clip-path="url(#fc59489302)"><path fill="#39b54a" d="M 78.851562 18.1875 C 77.832031 18.496094 75.871094 18.898438 73.925781 18.054688 C 70.734375 16.664062 68.824219 12.453125 69.6875 7.75 C 73.796875 7.589844 77.398438 9.582031 78.742188 12.699219 C 79.648438 14.796875 79.277344 16.820312 79.027344 17.769531 C 78.390625 16.695312 77.554688 15.472656 76.457031 14.222656 C 74.765625 12.289062 73.023438 10.929688 71.613281 10 C 73.011719 11.261719 74.503906 12.757812 76.003906 14.515625 C 77.085938 15.78125 78.03125 17.015625 78.851562 18.1875 Z M 78.851562 18.1875 " fill-opacity="1" fill-rule="nonzero"/></g></svg>